# Blender v2.81 (sub 16) OBJ File: 'Miscellaneous.blend'
# www.blender.org
mtllib cage_base.mtl
o Cylinder
v -2.181672 0.000000 -20.202726
v -2.181672 4.000000 -20.202726
v 11.305120 0.000000 -14.616313
v 11.305120 4.000000 -14.616313
v 16.891533 0.000000 -1.129521
v 16.891533 4.000000 -1.129521
v 11.305120 0.000000 12.357270
v 11.305120 4.000000 12.357270
v -2.181674 0.000000 17.943682
v -2.181674 4.000000 17.943682
v -15.668466 0.000000 12.357268
v -15.668466 4.000000 12.357268
v -21.254875 0.000000 -1.129522
v -21.254875 4.000000 -1.129522
v -15.668466 0.000000 -14.616312
v -15.668466 4.000000 -14.616312
vt 0.752685 0.542623
vt 0.464260 0.833510
vt 0.464260 0.542623
vt 0.752685 0.708510
vt 0.464260 0.992498
vt 0.464260 0.708510
vt 0.464260 0.746444
vt 0.752685 0.512765
vt 0.752685 0.746444
vt 0.464260 0.512765
vt 0.752685 0.296569
vt 0.464260 0.421569
vt 0.752685 0.125390
vt 0.752685 0.421569
vt 0.752685 -0.011985
vt 0.464260 0.284194
vt 0.464260 -0.011985
vt 0.403029 0.125491
vt 0.825451 0.352956
vt 0.650478 0.902105
vt 0.752685 0.159194
vt 0.464260 0.437890
vt 0.464260 0.159194
vt 0.752685 0.433944
vt 0.464260 0.667623
vt 0.464260 0.433944
vt 0.364894 0.933482
vt 0.172261 0.328910
vt 0.637317 0.078489
vt 0.752685 0.833510
vt 0.752685 0.992498
vt 0.464260 0.296569
vt 0.464260 0.125390
vt 0.752685 0.284194
vt 0.650478 0.125491
vt 0.825451 0.674640
vt 0.403029 0.902105
vt 0.228055 0.674640
vt 0.228055 0.352956
vt 0.752685 0.437890
vt 0.752685 0.667623
vt 0.172261 0.683060
vt 0.364894 0.078489
vt 0.829949 0.328910
vt 0.829949 0.683060
vt 0.637317 0.933482
vn 0.3827 0.0000 -0.9239
vn 0.9239 0.0000 -0.3827
vn 0.9239 0.0000 0.3827
vn 0.3827 0.0000 0.9239
vn -0.3827 0.0000 0.9239
vn -0.9239 0.0000 0.3827
vn 0.0000 1.0000 0.0000
vn -0.9239 0.0000 -0.3827
vn -0.3827 0.0000 -0.9239
vn 0.0000 -1.0000 0.0000
usemtl Material.001
s off
f 2/1/1 3/2/1 1/3/1
f 4/4/2 5/5/2 3/6/2
f 6/7/3 7/8/3 5/9/3
f 8/10/4 9/11/4 7/8/4
f 10/12/5 11/13/5 9/14/5
f 12/15/6 13/16/6 11/17/6
f 6/18/7 2/19/7 14/20/7
f 14/21/8 15/22/8 13/23/8
f 16/24/9 1/25/9 15/26/9
f 15/27/10 3/28/10 7/29/10
f 2/1/1 4/30/1 3/2/1
f 4/4/2 6/31/2 5/5/2
f 6/7/3 8/10/3 7/8/3
f 8/10/4 10/32/4 9/11/4
f 10/12/5 12/33/5 11/13/5
f 12/15/6 14/34/6 13/16/6
f 6/18/7 4/35/7 2/19/7
f 2/19/7 16/36/7 14/20/7
f 14/20/7 12/37/7 10/38/7
f 10/38/7 8/39/7 14/20/7
f 8/39/7 6/18/7 14/20/7
f 14/21/8 16/40/8 15/22/8
f 16/24/9 2/41/9 1/25/9
f 15/27/10 1/42/10 3/28/10
f 3/28/10 5/43/10 7/29/10
f 7/29/10 9/44/10 11/45/10
f 11/45/10 13/46/10 7/29/10
f 13/46/10 15/27/10 7/29/10
