# Blender v2.81 (sub 16) OBJ File: 'Miscellaneous.blend'
# www.blender.org
mtllib ramp.mtl
o Ramp_Cube
v 29.868837 2.616114 -20.308867
v 31.952480 0.000000 -20.308867
v 29.868837 2.616114 20.308867
v 31.952480 0.000000 20.308867
v -25.767683 14.646496 -20.308865
v -23.423578 -0.027958 -20.308865
v -25.767683 14.646496 20.308865
v -23.423578 -0.027958 20.308865
vt 0.993405 0.061514
vt 0.014172 0.974178
vt 0.014172 0.077401
vt 0.686830 0.887344
vt 0.822079 0.123022
vt 0.822079 0.916975
vt 0.249055 0.203118
vt 0.926514 0.827051
vt 0.238473 0.848234
vt 0.000000 0.509951
vt 0.063793 1.000000
vt 0.000000 1.000000
vt 0.901717 0.137359
vt 0.884489 0.114413
vt 0.901717 0.114413
vt 0.861008 0.881227
vt 0.717601 0.070796
vt 0.861008 0.039377
vt 0.993405 0.958291
vt 0.063680 0.090777
vt 0.937096 0.181935
vt 0.063793 0.509951
vt 0.884489 0.137359
vt 0.056859 0.915417
vn 0.2113 0.9774 0.0000
vn -0.0000 -0.0000 1.0000
vn -0.9875 -0.1577 0.0000
vn 0.0005 -1.0000 0.0000
vn 0.7822 0.6230 0.0000
vn -0.0000 -0.0000 -1.0000
usemtl Material
s off
f 1/1/1 7/2/1 3/3/1
f 3/4/2 8/5/2 4/6/2
f 7/7/3 6/8/3 8/9/3
f 2/10/4 8/11/4 6/12/4
f 1/13/5 4/14/5 2/15/5
f 6/16/6 1/17/6 2/18/6
f 1/1/1 5/19/1 7/2/1
f 3/4/2 7/20/2 8/5/2
f 7/7/3 5/21/3 6/8/3
f 2/10/4 4/22/4 8/11/4
f 1/13/5 3/23/5 4/14/5
f 6/16/6 5/24/6 1/17/6
