# Blender v2.81 (sub 16) OBJ File: 'human.blend'
# www.blender.org
mtllib hands_crossed.mtl
o hands_crossed_Cube.000
v -0.155657 2.836618 1.183338
v -1.092380 3.698207 0.754585
v -0.408265 2.521935 1.102863
v -1.344988 3.383524 0.674109
v -0.003565 2.812103 0.801790
v -0.940288 3.673692 0.373037
v -0.256172 2.497420 0.721315
v -1.192895 3.359010 0.292561
v -0.020569 2.785199 0.682466
v 0.899055 3.738653 0.461482
v 0.250211 2.497423 0.567682
v 1.169835 3.450877 0.346698
v 0.108274 2.751156 1.071763
v 1.027898 3.704610 0.850779
v 0.379054 2.463380 0.956980
v 1.298678 3.416834 0.735996
v -0.128634 3.723117 0.190355
v -0.190355 3.723117 0.128634
v -0.190355 3.947197 0.128634
v -0.128634 3.947197 0.190355
v -0.190355 3.723117 -0.128634
v -0.128634 3.723117 -0.190355
v -0.128634 3.947197 -0.190355
v -0.190355 3.947197 -0.128634
v 0.190355 3.723117 0.128634
v 0.128634 3.723117 0.190355
v 0.128634 3.947197 0.190355
v 0.190355 3.947197 0.128634
v 0.128634 3.723117 -0.190355
v 0.190355 3.723117 -0.128634
v 0.190355 3.947197 -0.128634
v 0.128634 3.947197 -0.190355
vt 0.250000 0.500000
vt 0.500000 0.250000
vt 0.500000 0.500000
vt 0.000000 0.500000
vt 0.250000 0.250000
vt 0.250000 0.500000
vt 0.000000 0.000000
vt 0.250000 0.000000
vt 0.250000 0.250000
vt 0.500000 0.000000
vt 0.500000 0.250000
vt 0.250000 1.000000
vt 0.500000 0.750000
vt 0.500000 1.000000
vt 0.500000 0.500000
vt 0.250000 0.750000
vt 0.250000 0.500000
vt 0.500000 0.500000
vt 0.750000 0.250000
vt 0.750000 0.500000
vt 0.000000 0.750000
vt 0.250000 0.500000
vt 0.250000 0.750000
vt 0.750000 0.750000
vt 0.500000 0.500000
vt 0.750000 0.500000
vt 0.500000 0.250000
vt 0.750000 0.000000
vt 0.750000 0.250000
vt 0.000000 0.750000
vt 0.250000 1.000000
vt 0.000000 1.000000
vt 1.000000 0.000000
vt 0.750000 0.250000
vt 0.750000 0.000000
vt 0.387374 0.333333
vt 0.612626 0.666667
vt 0.387374 0.666667
vt 0.000000 0.279293
vt 0.333333 0.054040
vt 0.333333 0.279293
vt 0.333333 0.720707
vt 0.279293 1.000000
vt 0.000000 0.945959
vt 0.333333 0.279293
vt 0.666667 0.054040
vt 0.666667 0.279293
vt 0.000000 0.612626
vt 0.333333 0.387374
vt 0.333333 0.612626
vt 0.612626 0.333333
vt 0.666667 0.666667
vt 0.000000 0.666667
vt 0.000000 0.387374
vt 0.333333 0.333333
vt 0.945959 0.333333
vt 0.666667 0.279293
vt 0.720707 0.000000
vt 0.250000 0.250000
vt 0.000000 0.250000
vt 0.250000 0.000000
vt 0.250000 0.750000
vt 0.500000 0.750000
vt 0.500000 0.250000
vt 0.000000 0.500000
vt 0.500000 0.750000
vt 0.500000 0.000000
vt 0.250000 0.750000
vt 1.000000 0.250000
vt 0.000000 0.054041
vt 0.054040 0.666667
vt 0.279293 0.666667
vt 0.333333 0.945959
vt 0.054041 1.000000
vt 0.000000 0.720707
vt 0.333333 0.054041
vt 0.666667 0.333333
vt 0.333333 0.666667
vt 0.333333 0.666667
vt 1.000000 0.054040
vt 1.000000 0.279293
vt 0.720707 0.333333
vt 0.666667 0.054040
vt 0.945959 0.000000
vn -0.3696 0.0596 0.9273
vn -0.6139 -0.7648 -0.1956
vn 0.3696 -0.0596 -0.9273
vn 0.6139 0.7648 0.1956
vn 0.6975 -0.6415 0.3193
vn -0.6975 0.6415 -0.3193
vn -0.3131 0.0827 -0.9461
vn 0.6581 -0.6994 -0.2790
vn 0.3131 -0.0827 0.9461
vn -0.6581 0.6994 0.2790
vn -0.6848 -0.7099 0.1645
vn 0.6848 0.7099 -0.1645
vn 0.0000 0.0000 1.0000
vn 1.0000 0.0000 0.0000
vn 0.0000 1.0000 0.0000
vn -1.0000 0.0000 0.0000
vn 0.0000 0.0000 -1.0000
vn -0.7071 0.0000 0.7071
vn -0.7071 0.0000 -0.7071
vn 0.7071 0.0000 -0.7071
vn 0.7071 0.0000 0.7071
vn 0.0000 -1.0000 0.0000
usemtl Material.003
s off
f 2/1/1 3/2/1 1/3/1
f 4/4/2 7/5/2 3/6/2
f 7/5/3 6/7/3 5/8/3
f 5/9/4 2/10/4 1/11/4
f 7/12/5 1/13/5 3/14/5
f 8/15/6 2/16/6 6/17/6
f 10/18/7 11/19/7 9/20/7
f 12/21/8 15/22/8 11/23/8
f 15/24/9 14/25/9 13/26/9
f 13/27/10 10/28/10 9/29/10
f 15/30/11 9/31/11 11/32/11
f 16/33/12 10/34/12 14/35/12
f 27/36/13 17/37/13 26/38/13
f 31/39/14 25/40/14 30/41/14
f 32/42/15 24/43/15 20/44/15
f 19/45/16 21/46/16 18/47/16
f 23/48/17 29/49/17 22/50/17
f 20/51/18 18/52/18 17/37/18
f 22/50/19 24/53/19 23/48/19
f 30/41/20 32/54/20 31/39/20
f 26/38/21 28/55/21 27/36/21
f 22/56/22 30/57/22 26/58/22
f 2/1/1 4/59/1 3/2/1
f 4/4/2 8/60/2 7/5/2
f 7/5/3 8/60/3 6/7/3
f 5/9/4 6/61/4 2/10/4
f 7/12/5 5/62/5 1/13/5
f 8/15/6 4/63/6 2/16/6
f 10/18/7 12/64/7 11/19/7
f 12/21/8 16/65/8 15/22/8
f 15/24/9 16/66/9 14/25/9
f 13/27/10 14/67/10 10/28/10
f 15/30/11 13/68/11 9/31/11
f 16/33/12 12/69/12 10/34/12
f 27/36/13 20/51/13 17/37/13
f 31/39/14 28/70/14 25/40/14
f 28/71/15 31/72/15 32/42/15
f 32/42/15 23/73/15 24/43/15
f 24/43/15 19/74/15 20/44/15
f 20/44/15 27/75/15 28/71/15
f 28/71/15 32/42/15 20/44/15
f 19/45/16 24/76/16 21/46/16
f 23/48/17 32/54/17 29/49/17
f 20/51/18 19/77/18 18/52/18
f 22/50/19 21/78/19 24/53/19
f 30/41/20 29/49/20 32/54/20
f 26/38/21 25/79/21 28/55/21
f 18/80/22 21/81/22 22/56/22
f 22/56/22 29/82/22 30/57/22
f 30/57/22 25/83/22 26/58/22
f 26/58/22 17/84/22 18/80/22
f 18/80/22 22/56/22 26/58/22
