# Blender v2.81 (sub 16) OBJ File: 'human.blend'
# www.blender.org
mtllib hands.mtl
o hands_Cube.004
v -1.235796 2.295991 0.208847
v -1.235796 3.638978 0.208847
v -1.235796 2.295991 -0.202628
v -1.235796 3.638978 -0.202628
v -0.824320 2.295991 0.208847
v -0.824320 3.638978 0.208847
v -0.824320 2.295991 -0.202628
v -0.824320 3.638978 -0.202628
v 0.826716 2.307198 0.205738
v 0.826716 3.650186 0.205738
v 0.826716 2.307198 -0.205738
v 0.826716 3.650186 -0.205738
v 1.238191 2.307198 0.205738
v 1.238191 3.650186 0.205738
v 1.238191 2.307198 -0.205738
v 1.238191 3.650186 -0.205738
v -0.128634 3.723117 0.190355
v -0.190355 3.723117 0.128634
v -0.190355 3.947197 0.128634
v -0.128634 3.947197 0.190355
v -0.190355 3.723117 -0.128634
v -0.128634 3.723117 -0.190355
v -0.128634 3.947197 -0.190355
v -0.190355 3.947197 -0.128634
v 0.190355 3.723117 0.128634
v 0.128634 3.723117 0.190355
v 0.128634 3.947197 0.190355
v 0.190355 3.947197 0.128634
v 0.128634 3.723117 -0.190355
v 0.190355 3.723117 -0.128634
v 0.190355 3.947197 -0.128634
v 0.128634 3.947197 -0.190355
vt 0.250000 0.500000
vt 0.500000 0.250000
vt 0.500000 0.500000
vt 0.000000 0.500000
vt 0.250000 0.250000
vt 0.250000 0.500000
vt 0.000000 0.250000
vt 0.250000 0.000000
vt 0.250000 0.000000
vt 0.500000 0.250000
vt 0.250000 0.250000
vt 0.250000 1.000000
vt 0.500000 0.750000
vt 0.500000 1.000000
vt 0.500000 0.750000
vt 0.250000 0.500000
vt 0.500000 0.500000
vt 0.500000 0.500000
vt 0.750000 0.250000
vt 0.750000 0.500000
vt 0.000000 0.750000
vt 0.250000 0.500000
vt 0.250000 0.750000
vt 0.500000 0.750000
vt 0.750000 0.500000
vt 0.750000 0.750000
vt 0.500000 0.000000
vt 0.750000 0.250000
vt 0.500000 0.250000
vt 0.000000 0.750000
vt 0.250000 1.000000
vt 0.000000 1.000000
vt 1.000000 0.250000
vt 0.750000 0.000000
vt 1.000000 0.000000
vt 0.387374 0.333333
vt 0.612626 0.666667
vt 0.387374 0.666667
vt 0.000000 0.279293
vt 0.333333 0.054040
vt 0.333333 0.279293
vt 0.333333 0.720707
vt 0.279293 1.000000
vt 0.000000 0.945959
vt 0.333333 0.279293
vt 0.666667 0.054040
vt 0.666667 0.279293
vt 0.000000 0.612626
vt 0.333333 0.387374
vt 0.333333 0.612626
vt 0.612626 0.333333
vt 0.666667 0.666667
vt 0.000000 0.666667
vt 0.000000 0.387374
vt 0.333333 0.333333
vt 0.945959 0.333333
vt 0.666667 0.279293
vt 0.720707 0.000000
vt 0.250000 0.250000
vt 0.000000 0.000000
vt 0.500000 0.000000
vt 0.250000 0.750000
vt 0.250000 0.750000
vt 0.500000 0.250000
vt 0.000000 0.500000
vt 0.500000 0.500000
vt 0.750000 0.000000
vt 0.250000 0.750000
vt 0.750000 0.250000
vt 0.000000 0.054041
vt 0.054040 0.666667
vt 0.279293 0.666667
vt 0.333333 0.945959
vt 0.054041 1.000000
vt 0.000000 0.720707
vt 0.333333 0.054041
vt 0.666667 0.333333
vt 0.333333 0.666667
vt 0.333333 0.666667
vt 1.000000 0.054040
vt 1.000000 0.279293
vt 0.720707 0.333333
vt 0.666667 0.054040
vt 0.945959 0.000000
vn -1.0000 0.0000 0.0000
vn 0.0000 0.0000 -1.0000
vn 1.0000 0.0000 0.0000
vn 0.0000 0.0000 1.0000
vn 0.0000 -1.0000 0.0000
vn 0.0000 1.0000 0.0000
vn -0.7071 0.0000 0.7071
vn -0.7071 0.0000 -0.7071
vn 0.7071 0.0000 -0.7071
vn 0.7071 0.0000 0.7071
usemtl None
s off
f 2/1/1 3/2/1 1/3/1
f 4/4/2 7/5/2 3/6/2
f 8/7/3 5/8/3 7/5/3
f 6/9/4 1/10/4 5/11/4
f 7/12/5 1/13/5 3/14/5
f 4/15/6 6/16/6 8/17/6
f 10/18/1 11/19/1 9/20/1
f 12/21/2 15/22/2 11/23/2
f 16/24/3 13/25/3 15/26/3
f 14/27/4 9/28/4 13/29/4
f 15/30/5 9/31/5 11/32/5
f 12/33/6 14/34/6 16/35/6
f 27/36/4 17/37/4 26/38/4
f 31/39/3 25/40/3 30/41/3
f 32/42/6 24/43/6 20/44/6
f 19/45/1 21/46/1 18/47/1
f 23/48/2 29/49/2 22/50/2
f 20/51/7 18/52/7 17/37/7
f 22/50/8 24/53/8 23/48/8
f 30/41/9 32/54/9 31/39/9
f 26/38/10 28/55/10 27/36/10
f 22/56/5 30/57/5 26/58/5
f 2/1/1 4/59/1 3/2/1
f 4/4/2 8/7/2 7/5/2
f 8/7/3 6/60/3 5/8/3
f 6/9/4 2/61/4 1/10/4
f 7/12/5 5/62/5 1/13/5
f 4/15/6 2/63/6 6/16/6
f 10/18/1 12/64/1 11/19/1
f 12/21/2 16/65/2 15/22/2
f 16/24/3 14/66/3 13/25/3
f 14/27/4 10/67/4 9/28/4
f 15/30/5 13/68/5 9/31/5
f 12/33/6 10/69/6 14/34/6
f 27/36/4 20/51/4 17/37/4
f 31/39/3 28/70/3 25/40/3
f 28/71/6 31/72/6 32/42/6
f 32/42/6 23/73/6 24/43/6
f 24/43/6 19/74/6 20/44/6
f 20/44/6 27/75/6 28/71/6
f 28/71/6 32/42/6 20/44/6
f 19/45/1 24/76/1 21/46/1
f 23/48/2 32/54/2 29/49/2
f 20/51/7 19/77/7 18/52/7
f 22/50/8 21/78/8 24/53/8
f 30/41/9 29/49/9 32/54/9
f 26/38/10 25/79/10 28/55/10
f 18/80/5 21/81/5 22/56/5
f 22/56/5 29/82/5 30/57/5
f 30/57/5 25/83/5 26/58/5
f 26/58/5 17/84/5 18/80/5
f 18/80/5 22/56/5 26/58/5
