# Blender v2.81 (sub 16) OBJ File: 'BigSpotlight.blend'
# www.blender.org
o Cube
v 1.000000 7.426001 -1.000000
v 1.000000 0.000000 -1.000000
v 1.000000 7.426001 1.000000
v 1.000000 0.000000 1.000000
v -1.000000 7.426001 -1.000000
v -1.000000 0.000000 -1.000000
v -1.000000 7.426001 1.000000
v -1.000000 0.000000 1.000000
v 0.704073 8.122858 0.704073
v -0.704073 8.122858 0.704073
v 0.704073 8.122858 -0.704073
v -0.704073 8.122858 -0.704073
v 0.704073 42.598228 0.704073
v -0.704073 42.598228 0.704073
v 0.704073 42.598228 -0.704073
v -0.704073 42.598228 -0.704073
v 0.704073 43.273708 1.271461
v -0.704073 43.273708 1.271461
v 0.704073 44.667698 1.470624
v -0.704073 44.667698 1.470624
v 0.704073 43.037460 2.925027
v -0.704073 43.037460 2.925027
v 0.704073 44.431450 3.124190
v -0.704073 44.431450 3.124190
v 7.183451 36.638687 3.285987
v -7.183451 36.638687 3.285987
v 7.183451 50.655815 5.702208
v -7.183451 50.655815 5.702208
v 7.183451 36.423447 4.534657
v -7.183451 36.423447 4.534657
v 7.183451 50.440575 6.950877
v -7.183451 50.440575 6.950877
vt 0.797080 0.167880
vt 0.753533 0.182043
vt 0.746977 0.165737
vt 0.949840 0.800018
vt 1.000000 0.965632
vt 0.949840 0.965632
vt 0.755867 0.000000
vt 0.805970 0.002142
vt 0.127038 0.321715
vt 0.176926 0.366500
vt 0.127038 0.366500
vt 0.840686 0.834262
vt 0.899679 0.997857
vt 0.849576 1.000000
vt 0.949840 0.164345
vt 0.899679 0.000000
vt 0.949840 0.000000
vt 0.942418 0.180777
vt 0.907101 0.943754
vt 0.907101 0.180777
vt 0.882518 0.816448
vt 0.890789 0.832120
vt 0.899679 0.164345
vt 0.992578 0.785073
vt 1.000000 0.800018
vt 0.712261 0.951483
vt 0.760942 0.968675
vt 0.764263 1.000000
vt 0.847242 0.817956
vt 0.841246 0.047009
vt 0.788809 0.183552
vt 0.957262 0.785073
vt 0.992578 0.016208
vt 0.212242 0.321715
vt 0.176926 0.359115
vt 0.176926 0.321715
vt 0.957261 0.016208
vt 0.992578 0.000000
vt 0.942418 0.943754
vt 0.907101 0.996976
vt 0.805970 0.048517
vt 0.854652 0.031325
vt 0.192541 0.176623
vt 0.000000 0.321715
vt 0.157227 0.176623
vt 0.857972 0.000000
vt 0.896359 0.034827
vt 0.802649 0.965173
vt 0.805970 0.996499
vt 0.247559 0.321715
vt 0.212242 0.359092
vt 0.212242 0.321715
vt 0.063484 0.321715
vt 0.095261 0.639575
vt 0.063484 0.639554
vt 0.192541 0.145091
vt 0.000000 0.000000
vt 0.356681 0.000000
vt 0.157227 0.145091
vt 0.356681 0.321715
vt 0.712261 0.321715
vt 0.356681 0.000000
vt 0.712261 0.000000
vt 0.031776 0.321715
vt 0.063484 0.643429
vt 0.031776 0.643429
vt 0.031776 0.643429
vt 0.000000 0.321715
vt 0.031775 0.321715
vt 0.095261 0.321735
vt 0.127038 0.639554
vt 0.095261 0.639575
vt 0.176926 0.321715
vt 0.747537 0.952991
vt 0.212242 0.359115
vt 0.957261 0.000000
vt 0.942418 0.996976
vt 0.899679 0.003501
vt 0.247559 0.359092
vt 0.095261 0.321735
vt 0.356681 0.321715
vt 0.063484 0.321715
vt 0.000000 0.643429
vt 0.127038 0.321715
vn -0.9204 0.3909 0.0000
vn 0.0000 0.0000 1.0000
vn -1.0000 0.0000 0.0000
vn 0.0000 -1.0000 0.0000
vn 1.0000 0.0000 0.0000
vn 0.0000 0.0000 -1.0000
vn 0.9204 0.3909 0.0000
vn 0.0000 0.3909 -0.9204
vn 0.0000 0.3909 0.9204
vn 0.0000 0.9899 0.1414
vn 0.0000 -0.6432 0.7657
vn 0.0000 0.7244 -0.6894
vn 0.1912 0.1388 -0.9717
vn 0.0000 -0.9899 -0.1414
vn -0.2231 0.1656 -0.9606
vn 0.0000 -0.0563 -0.9984
vn 0.0000 0.3827 -0.9239
vn 0.0000 -0.1699 0.9855
vn 0.0000 -0.9855 -0.1699
vn 0.0000 0.9855 0.1699
vn 0.2231 0.1656 -0.9606
vn -0.1912 0.1388 -0.9717
s off
f 7/1/1 12/2/1 5/3/1
f 3/4/2 8/5/2 4/6/2
f 7/1/3 6/7/3 8/8/3
f 2/9/4 8/10/4 6/11/4
f 1/12/5 4/13/5 2/14/5
f 5/15/6 2/16/6 6/17/6
f 12/18/6 15/19/6 11/20/6
f 1/12/7 9/21/7 3/22/7
f 5/15/8 11/20/8 1/23/8
f 3/4/9 10/24/9 7/25/9
f 16/26/3 18/27/3 20/28/3
f 11/29/5 13/30/5 9/21/5
f 10/31/3 16/26/3 12/2/3
f 9/32/2 14/33/2 10/24/2
f 20/34/10 23/35/10 19/36/10
f 13/37/11 18/38/11 14/33/11
f 16/39/12 19/40/12 15/19/12
f 15/41/5 17/42/5 13/30/5
f 23/43/13 25/44/13 21/45/13
f 19/46/5 21/47/5 17/42/5
f 20/28/3 22/48/3 24/49/3
f 17/50/14 22/51/14 18/52/14
f 26/53/3 32/54/3 28/55/3
f 24/56/15 26/57/15 28/58/15
f 22/59/16 25/44/16 26/57/16
f 23/43/17 28/58/17 27/60/17
f 32/61/18 29/62/18 31/63/18
f 25/64/19 30/65/19 26/66/19
f 28/67/20 31/68/20 27/69/20
f 27/70/5 29/71/5 25/72/5
f 7/1/1 10/31/1 12/2/1
f 3/4/2 7/25/2 8/5/2
f 7/1/3 5/3/3 6/7/3
f 2/9/4 4/73/4 8/10/4
f 1/12/5 3/22/5 4/13/5
f 5/15/6 1/23/6 2/16/6
f 12/18/6 16/39/6 15/19/6
f 1/12/7 11/29/7 9/21/7
f 5/15/8 12/18/8 11/20/8
f 3/4/9 9/32/9 10/24/9
f 16/26/3 14/74/3 18/27/3
f 11/29/5 15/41/5 13/30/5
f 10/31/3 14/74/3 16/26/3
f 9/32/2 13/37/2 14/33/2
f 20/34/10 24/75/10 23/35/10
f 13/37/11 17/76/11 18/38/11
f 16/39/12 20/77/12 19/40/12
f 15/41/5 19/46/5 17/42/5
f 23/43/21 27/60/21 25/44/21
f 19/46/5 23/78/5 21/47/5
f 20/28/3 18/27/3 22/48/3
f 17/50/14 21/79/14 22/51/14
f 26/53/3 30/80/3 32/54/3
f 24/56/22 22/59/22 26/57/22
f 22/59/16 21/45/16 25/44/16
f 23/43/17 24/56/17 28/58/17
f 32/61/18 30/81/18 29/62/18
f 25/64/19 29/82/19 30/65/19
f 28/67/20 32/83/20 31/68/20
f 27/70/5 31/84/5 29/71/5
