# Blender v2.81 (sub 16) OBJ File: 'DoubleTurretTank_centered.blend'
# www.blender.org
o Tank2.002
v -18.721159 4.658093 -7.375124
v 6.968854 4.658093 -7.375124
v -18.721159 4.658093 -6.313492
v 6.968854 4.658093 -6.313492
v -18.778378 3.458228 -7.375124
v -18.778378 3.458228 -6.313493
v -18.425674 1.836479 -7.375124
v -18.425674 1.836479 -6.313493
v -17.367569 1.156398 -7.375125
v -17.367569 1.156398 -6.313493
v -15.956762 0.778373 -7.375125
v -15.956762 0.778373 -6.313493
v 3.794538 0.778373 -7.375125
v 3.794538 0.778373 -6.313493
v 6.154324 1.836479 -7.375124
v 6.154324 1.836479 -6.313493
v 6.968854 3.247286 -7.375124
v 6.968854 3.247286 -6.313493
v 3.794538 0.032047 -4.320727
v 5.558046 0.697508 -4.320727
v 5.329844 2.107629 -4.320727
v 6.849025 1.442855 -4.320727
v 6.390437 2.719962 -4.320726
v 7.321555 3.206362 -4.320726
v -18.552662 2.806208 -4.320726
v -19.483780 3.206362 -4.320726
v -19.011250 1.442855 -4.320727
v -17.714367 2.107629 -4.320727
v -17.720272 0.697508 -4.320727
v -15.956762 0.032047 -4.320727
v 3.794538 0.032047 -7.375125
v 5.558046 0.697508 -7.375125
v -15.956762 0.032047 -7.375125
v -17.720272 0.697508 -7.375125
v -19.011250 1.442855 -7.375125
v 6.849025 1.442855 -7.375125
v -19.483780 3.206363 -7.375124
v -19.483780 5.051717 -7.375124
v 7.321555 5.051717 -7.375124
v 7.321555 3.206363 -7.375124
v -19.483780 3.206363 -8.031150
v -20.189184 3.206363 -8.031150
v -20.189184 3.206362 -4.320726
vt 0.850790 0.000000
vt 0.850790 0.958392
vt 0.795000 0.000000
vt 0.795000 0.958392
vt 0.906580 0.380164
vt 0.906580 0.335357
vt 0.962370 0.380164
vt 0.962370 0.335357
vt 0.906580 0.440215
vt 0.962370 0.440215
vt 0.850790 0.044913
vt 0.850790 0.000000
vt 0.906580 0.044913
vt 0.906580 0.000000
vt 0.850790 0.099395
vt 0.906580 0.099395
vt 0.850790 0.808056
vt 0.906580 0.808055
vt 0.850790 0.881910
vt 0.906580 0.881910
vt 0.962370 0.280336
vt 0.962370 0.335357
vt 0.906580 0.280336
vt 0.906580 0.335357
vt 0.962370 0.227895
vt 0.906580 0.227895
vt 0.467673 0.131579
vt 0.502644 0.065789
vt 0.576748 0.074303
vt 0.541813 0.017628
vt 0.608926 0.034736
vt 0.634487 0.000000
vt 0.613459 0.965264
vt 0.634487 1.000000
vt 0.541813 0.982372
vt 0.576748 0.933990
vt 0.502644 0.934211
vt 0.467673 0.868421
vt 0.634487 0.113951
vt 0.634487 0.048161
vt 0.794999 0.113951
vt 0.794999 0.048161
vt 0.634488 0.850793
vt 0.795000 0.850793
vt 0.634488 0.916582
vt 0.795000 0.916582
vt 0.634488 0.964743
vt 0.795000 0.964743
vt 0.634487 0.000000
vt 0.794999 0.000000
vt 0.166814 0.000000
vt 0.263790 0.000000
vt 0.243104 0.028450
vt 0.263790 1.000000
vt 0.243104 0.986842
vt 0.166814 1.000000
vt 0.168965 0.986842
vt 0.074140 0.982372
vt 0.094825 0.956455
vt 0.034971 0.934211
vt 0.039220 0.868421
vt 0.000000 0.868421
vt 0.000000 0.131579
vt 0.180050 0.026316
vt 0.094825 0.039474
vt 0.074140 0.017628
vt 0.034971 0.065789
vt 0.059086 0.078947
vt 0.039220 0.131579
vt 0.943650 0.440215
vt 0.943650 0.464688
vt 0.906580 0.440215
vt 0.906580 0.578636
vt 0.943650 0.578636
vt 0.996813 0.227895
vt 0.906580 0.227895
vt 0.996813 0.113947
vt 0.906580 0.113947
vt 1.000000 0.113947
vt 0.906580 0.113947
vt 1.000000 0.000000
vt 0.906580 0.000000
vt 0.393534 0.960526
vt 0.319394 0.930140
vt 0.467673 0.960526
vt 0.263790 0.842105
vt 0.467673 0.002135
vt 0.263790 0.105263
vt 0.404619 0.000000
vt 0.283655 0.052632
vt 0.319394 0.013158
vn 0.0000 -1.0000 0.0000
vn 0.9989 -0.0476 0.0000
vn 0.9772 0.2125 0.0000
vn 0.5407 0.8412 0.0000
vn 0.2588 0.9659 0.0000
vn 0.0000 1.0000 0.0000
vn -0.4091 0.9125 0.0000
vn -0.8660 0.5000 0.0000
vn -1.0000 0.0000 0.0000
vn -0.0000 -0.0000 1.0000
vn 0.3531 -0.9356 -0.0000
vn -0.3531 -0.9356 -0.0000
vn -0.5000 -0.8660 -0.0000
vn 0.5000 -0.8660 -0.0000
vn 0.0000 0.0000 -1.0000
vn -0.9659 -0.2588 -0.0000
vn 0.9659 -0.2588 -0.0000
s off
f 1/1/1 2/2/1 3/3/1
f 3/3/1 2/2/1 4/4/1
f 5/5/2 1/6/2 6/7/2
f 6/7/2 1/6/2 3/8/2
f 7/9/3 5/5/3 8/10/3
f 8/10/3 5/5/3 6/7/3
f 9/11/4 7/12/4 10/13/4
f 10/13/4 7/12/4 8/14/4
f 11/15/5 9/11/5 12/16/5
f 12/16/5 9/11/5 10/13/5
f 13/17/6 11/15/6 14/18/6
f 14/18/6 11/15/6 12/16/6
f 15/19/7 13/17/7 16/20/7
f 16/20/7 13/17/7 14/18/7
f 17/21/8 15/22/8 18/23/8
f 18/23/8 15/22/8 16/24/8
f 2/25/9 17/21/9 4/26/9
f 4/26/9 17/21/9 18/23/9
f 19/27/10 20/28/10 21/29/10
f 21/29/10 20/28/10 22/30/10
f 21/29/10 22/30/10 23/31/10
f 23/31/10 22/30/10 24/32/10
f 25/33/10 26/34/10 27/35/10
f 25/33/10 27/35/10 28/36/10
f 28/36/10 27/35/10 29/37/10
f 28/36/10 29/37/10 30/38/10
f 19/27/10 21/29/10 30/38/10
f 30/38/10 21/29/10 28/36/10
f 31/39/11 32/40/11 19/41/11
f 19/41/11 32/40/11 20/42/11
f 33/43/1 31/39/1 30/44/1
f 30/44/1 31/39/1 19/41/1
f 34/45/12 33/43/12 29/46/12
f 29/46/12 33/43/12 30/44/12
f 35/47/13 34/45/13 27/48/13
f 27/48/13 34/45/13 29/46/13
f 32/40/14 36/49/14 20/42/14
f 20/42/14 36/49/14 22/50/14
f 37/51/15 38/52/15 1/53/15
f 1/53/15 38/52/15 39/54/15
f 1/53/15 39/54/15 2/55/15
f 2/55/15 39/54/15 40/56/15
f 2/55/15 40/56/15 17/57/15
f 17/57/15 40/56/15 36/58/15
f 17/57/15 36/58/15 15/59/15
f 15/59/15 36/58/15 32/60/15
f 15/59/15 32/60/15 13/61/15
f 13/61/15 32/60/15 31/62/15
f 13/61/15 31/62/15 33/63/15
f 1/53/15 5/64/15 37/51/15
f 37/51/15 5/64/15 7/65/15
f 37/51/15 7/65/15 35/66/15
f 35/66/15 7/65/15 34/67/15
f 7/65/15 9/68/15 34/67/15
f 34/67/15 9/68/15 33/63/15
f 9/68/15 11/69/15 33/63/15
f 33/63/15 11/69/15 13/61/15
f 41/70/1 37/71/1 42/72/1
f 42/72/1 37/71/1 43/73/1
f 37/71/1 26/74/1 43/73/1
f 27/75/16 26/76/16 35/77/16
f 35/77/16 26/76/16 37/78/16
f 36/79/17 40/80/17 22/81/17
f 22/81/17 40/80/17 24/82/17
f 18/83/15 16/84/15 4/85/15
f 4/85/15 16/84/15 14/86/15
f 4/85/15 14/86/15 3/87/15
f 3/87/15 14/86/15 12/88/15
f 3/87/15 12/88/15 6/89/15
f 6/89/15 12/88/15 10/90/15
f 6/89/15 10/90/15 8/91/15
