# Blender v2.81 (sub 16) OBJ File: 'stadion.blend'
# www.blender.org
o Plane
v -94.168861 3.678969 46.320488
v -93.869354 3.756963 -44.968842
v 96.354294 3.680435 -44.968838
v 0.726032 16.042665 -44.968838
v -0.504530 12.494715 46.320488
v 5.731698 11.829423 46.320488
v 83.790169 3.951982 46.320484
v 93.638435 3.724897 -44.968838
v 50.912571 11.350861 -44.968838
v 17.526241 6.217764 -44.968838
v 85.985352 3.642282 38.907639
v 94.690239 3.843479 30.853054
v 94.881844 3.691674 8.655699
v 94.506783 3.821321 -7.519528
v 5.308845 11.842710 38.608833
v -3.226591 16.020023 14.467989
v 2.065406 16.033009 -20.542398
v 32.096447 8.480001 29.015495
v 58.388954 10.385108 -30.865416
v 16.982094 15.983713 2.961737
v 50.007359 6.749325 10.523611
v 79.722855 7.629326 9.378773
v 82.811066 7.230410 15.204355
v 81.575310 6.365533 28.469513
v 54.890121 4.488200 21.235060
v 17.810102 11.812138 17.440893
v 27.119528 14.469643 -8.358262
v 11.490933 6.904033 -19.171221
v 45.803532 3.603618 -38.749523
v 69.998917 8.885404 -8.964419
v 27.613413 5.408919 -16.606422
v 14.277630 15.338465 -14.859065
v -19.969194 13.416601 -44.968838
v -22.614178 13.080973 -44.968838
v -57.025314 8.714464 -44.968842
v -74.984322 6.435604 -44.968842
v 10.587473 11.827951 25.403244
v -6.354171 10.967199 -1.257149
v 2.865749 10.969046 -11.530748
v -69.512985 5.937092 46.320488
v -55.882607 7.123694 46.320488
v -42.465687 8.291715 46.320488
v -31.997351 9.203044 46.320488
v -25.272575 9.788474 46.320488
v -2.314392 16.014616 35.566841
v -8.707072 16.014801 25.509169
v 12.245533 15.554530 -4.277585
v -99.454895 3.330477 -31.366211
v -99.057869 3.018917 -13.472779
v -99.057869 3.018917 22.093330
v -32.671455 9.189884 43.861687
v -29.550835 9.658190 44.961365
v -32.972237 5.523373 7.406899
v -44.141682 8.965970 2.024115
v -45.904282 8.931561 -4.404948
v -65.386040 10.018212 -3.854091
v -90.316154 4.490113 -25.235245
v -69.168793 13.768675 -20.722588
v -49.047821 8.466116 0.649580
v -57.688862 7.065959 36.512451
v -39.019161 8.837100 33.069511
v -36.230919 9.120399 30.878563
v -37.369308 9.098176 26.726288
v -17.380711 7.778596 14.920772
v -38.169762 10.515718 -18.050280
v -50.654934 8.838822 -21.732924
v -27.565315 6.881820 -14.922377
v -60.657928 10.660402 22.091154
v -65.172081 9.665725 34.273438
v -41.231651 8.486991 41.575951
v -47.747875 7.950222 39.928371
vt 0.149151 0.000000
vt 0.000000 0.265389
vt 0.000000 0.000000
vt 0.500000 1.000000
vt 0.549893 0.717490
vt 0.581931 1.000000
vt 0.623706 0.689540
vt 0.716954 0.931960
vt 0.789714 0.845273
vt 0.853397 0.605186
vt 0.959179 0.589773
vt 0.900411 0.404290
vt 0.961798 0.412587
vt 0.877843 0.176500
vt 0.965391 0.169433
vt 0.966761 0.076731
vt 0.556397 0.070616
vt 0.524821 0.000000
vt 0.967895 0.000000
vt 0.582272 0.373666
vt 0.577556 0.221718
vt 0.584993 0.581162
vt 0.519011 0.438134
vt 0.533846 0.554316
vt 0.542243 0.643313
vt 0.506641 0.732428
vt 0.428789 0.638367
vt 0.490349 0.380958
vt 0.749509 0.391901
vt 0.913911 0.340531
vt 0.848142 0.297104
vt 0.953116 1.000000
vt 0.744750 1.000000
vt 0.102355 0.195892
vt 0.095392 0.540528
vt 0.000000 0.654986
vt 0.050347 0.784239
vt 0.000000 0.850994
vt 0.000000 1.000000
vt 0.122132 1.000000
vt 0.146987 0.734056
vt 0.231049 0.618175
vt 0.241301 0.745291
vt 0.342562 0.697667
vt 0.314833 0.475153
vt 0.358133 0.428541
vt 0.385197 0.673132
vt 0.467738 0.348944
vt 0.446679 0.504152
vt 0.396711 1.000000
vt 0.198394 0.753474
vt 0.211765 1.000000
vt 0.383510 1.000000
vt 0.526153 0.281479
vt 0.490360 0.380979
vt 0.290211 0.297821
vt 0.360201 0.015907
vt 0.524381 0.000000
vt 0.522742 0.084506
vt 0.369529 0.000000
vt 0.336030 0.000000
vt 0.290172 0.051983
vt 0.283884 0.000000
vt 0.258430 0.070091
vt 0.217049 0.000000
vt 0.206404 0.107296
vt 0.192083 0.522109
vt 0.300165 0.293229
vt 0.300557 0.145106
vt 0.397174 0.269918
vt 0.332407 0.026911
vt 0.204313 0.306257
vt 0.526139 0.281453
vt 0.465809 0.222422
vt 0.446670 0.504135
vt 0.540233 0.093782
vn -0.0912 0.9958 -0.0087
vn 0.5026 0.8593 0.0947
vn 0.0931 0.9956 -0.0047
vn -0.2911 0.9041 -0.3129
vn 0.2045 0.9780 -0.0415
vn 0.2515 0.9679 0.0019
vn 0.1897 0.9818 -0.0051
vn 0.1523 0.9701 0.1888
vn 0.1003 0.9942 -0.0396
vn 0.1332 0.9839 0.1189
vn 0.3937 0.8891 0.2336
vn 0.0478 0.9948 -0.0902
vn 0.4482 0.2851 -0.8473
vn 0.4164 0.3010 -0.8579
vn -0.3793 0.9207 -0.0916
vn 0.1727 0.9727 0.1547
vn 0.1529 0.9519 0.2655
vn -0.0263 0.9963 0.0822
vn -0.1497 0.9394 0.3083
vn -0.0854 0.9947 0.0569
vn 0.2480 0.9666 -0.0653
vn 0.1830 0.9831 -0.0068
vn -0.1019 0.6628 0.7419
vn -0.6098 0.7002 0.3712
vn -0.2063 0.9784 0.0102
vn -0.1393 0.9900 0.0203
vn -0.1152 0.9932 -0.0162
vn -0.3602 0.9133 -0.1898
vn -0.4356 0.8530 0.2873
vn 0.0551 0.9983 -0.0204
vn -0.1428 0.9892 0.0339
vn 0.2406 0.9635 0.1169
vn -0.5766 -0.6321 -0.5176
vn -0.1259 0.9920 0.0073
vn 0.2420 0.9336 0.2642
vn -0.1259 0.9918 0.0218
vn 0.2528 0.9646 -0.0745
vn -0.4112 0.8885 -0.2037
vn -0.2292 0.9707 0.0716
vn 0.1061 0.9943 -0.0041
vn -0.0854 0.9809 0.1748
vn -0.0867 0.9961 0.0184
vn -0.0836 0.9601 0.2670
vn -0.0924 0.9957 0.0112
vn -0.0941 0.9954 0.0162
vn -0.0490 0.9801 -0.1925
vn 0.3356 0.9370 -0.0970
vn 0.2747 0.9447 0.1789
vn -0.1617 0.9861 0.0391
vn -0.1081 0.9938 0.0243
vn 0.1065 0.9933 -0.0440
vn 0.2095 0.9687 -0.1331
vn 0.4211 0.8915 0.1673
vn -0.2691 0.9324 -0.2414
vn -0.2695 0.9311 -0.2456
vn -0.2573 0.9454 0.1999
vn 0.6981 0.7150 -0.0380
vn -0.1030 0.9871 0.1222
vn 0.3256 0.9410 0.0917
vn 0.0920 0.9957 -0.0143
vn 0.1228 0.9924 -0.0050
vn 0.1443 0.9879 0.0566
vn 0.2079 0.9719 0.1104
vn 0.1702 0.9827 0.0729
vn 0.1882 0.9677 0.1676
vn 0.0709 0.9975 -0.0068
vn 0.1769 0.6678 -0.7230
vn -0.1815 0.8503 0.4940
vn 0.2114 0.9717 0.1054
vn 0.0773 0.6735 -0.7352
vn 0.1287 0.9628 0.2376
vn -0.0466 0.9729 0.2266
vn 0.1173 0.9802 -0.1594
vn 0.1757 0.9841 -0.0257
vn -0.1925 0.9813 0.0000
vn -0.1890 0.9819 0.0101
vn -0.1404 0.9900 -0.0115
vn -0.1969 0.9801 -0.0238
vn 0.2621 0.9528 0.1531
vn 0.0588 0.9901 0.1278
vn 0.2474 0.9364 0.2490
vn 0.0935 0.9951 -0.0310
vn -0.1349 0.9907 0.0163
vn -0.1539 0.9878 0.0228
vn -0.1501 0.9733 0.1737
vn -0.5704 0.6934 0.4403
vn -0.1215 0.9578 -0.2605
vn -0.5336 0.8213 -0.2018
vn -0.1867 0.9752 0.1187
vn -0.2969 0.8562 -0.4228
vn -0.1070 0.9395 0.3255
vn -0.1055 0.9652 0.2394
vn 0.3974 0.8898 0.2244
vn 0.3458 0.9358 -0.0692
vn 0.4217 0.8964 0.1366
vn -0.0886 0.9959 0.0160
vn -0.1074 0.9940 0.0218
vn 0.0540 0.9983 -0.0201
vn -0.0233 0.9988 -0.0440
s off
f 40/1/1 50/2/1 1/3/1
f 4/4/2 28/5/2 10/6/2
f 10/6/3 31/7/3 29/8/3
f 31/7/4 19/9/4 29/8/4
f 19/9/5 30/10/5 14/11/5
f 14/11/6 22/12/6 13/13/6
f 13/13/7 24/14/7 12/15/7
f 12/15/8 24/14/8 11/16/8
f 18/17/9 6/18/9 7/19/9
f 26/20/10 37/21/10 18/17/10
f 26/20/11 27/22/11 20/23/11
f 27/22/12 47/24/12 20/23/12
f 27/22/13 28/5/13 32/25/13
f 32/25/14 28/5/14 17/26/14
f 32/25/15 39/27/15 47/24/15
f 16/28/16 37/21/16 26/20/16
f 16/28/17 26/20/17 20/23/17
f 21/29/18 22/12/18 30/10/18
f 21/29/18 23/30/18 22/12/18
f 25/31/19 11/16/19 24/14/19
f 25/31/20 24/14/20 23/30/20
f 23/30/21 13/13/21 22/12/21
f 8/32/22 19/9/22 14/11/22
f 9/33/23 10/6/23 29/8/23
f 9/33/24 29/8/24 19/9/24
f 69/34/25 56/35/25 49/36/25
f 49/36/26 57/37/26 48/38/26
f 57/37/27 2/39/27 48/38/27
f 36/40/28 57/37/28 58/41/28
f 57/37/29 56/35/29 58/41/29
f 56/35/30 55/42/30 66/43/30
f 66/43/31 55/42/31 65/44/31
f 54/45/32 53/46/32 67/47/32
f 64/48/33 38/49/33 39/27/33
f 17/26/34 4/4/34 33/50/34
f 33/50/35 65/51/35 67/47/35
f 35/52/36 65/44/36 34/53/36
f 35/52/37 58/41/37 66/43/37
f 38/49/38 46/54/38 16/55/38
f 46/54/39 62/56/39 52/57/39
f 5/58/40 6/18/40 15/59/40
f 44/60/41 52/57/41 43/61/41
f 43/61/42 70/62/42 42/63/42
f 42/63/42 71/64/42 41/65/42
f 41/65/43 69/34/43 40/1/43
f 60/66/44 41/65/44 71/64/44
f 59/67/45 60/66/45 71/64/45
f 63/68/42 61/69/42 62/70/42
f 63/68/46 64/48/46 53/46/46
f 63/68/47 53/46/47 54/45/47
f 61/69/42 71/64/42 70/62/42
f 61/69/42 51/71/42 62/70/42
f 60/66/48 68/72/48 69/34/48
f 43/61/49 52/57/49 51/71/49
f 54/45/50 55/42/50 59/67/50
f 59/67/51 56/35/51 68/72/51
f 37/21/52 46/73/52 45/74/52
f 45/74/53 15/59/53 37/21/53
f 47/24/54 39/27/54 38/75/54
f 16/28/55 47/24/55 38/75/55
f 40/1/56 69/34/56 50/2/56
f 4/4/57 17/26/57 28/5/57
f 10/6/3 28/5/3 31/7/3
f 31/7/58 30/10/58 19/9/58
f 14/11/5 30/10/5 22/12/5
f 13/13/59 23/30/59 24/14/59
f 7/19/60 11/16/60 18/17/60
f 18/17/61 15/59/61 6/18/61
f 37/21/62 15/59/62 18/17/62
f 18/17/63 25/31/63 21/29/63
f 21/29/64 26/20/64 18/17/64
f 26/20/65 21/29/65 27/22/65
f 27/22/66 32/25/66 47/24/66
f 27/22/67 31/7/67 28/5/67
f 32/25/68 17/26/68 39/27/68
f 16/28/69 46/73/69 37/21/69
f 30/10/70 31/7/70 27/22/70
f 30/10/71 27/22/71 21/29/71
f 21/29/72 25/31/72 23/30/72
f 25/31/73 18/17/73 11/16/73
f 8/32/74 9/33/74 19/9/74
f 49/36/75 50/2/75 69/34/75
f 69/34/76 68/72/76 56/35/76
f 57/37/77 36/40/77 2/39/77
f 57/37/78 49/36/78 56/35/78
f 66/43/79 58/41/79 56/35/79
f 56/35/80 59/67/80 55/42/80
f 67/47/81 65/44/81 55/42/81
f 55/42/82 54/45/82 67/47/82
f 39/27/83 67/47/83 64/48/83
f 67/47/84 53/46/84 64/48/84
f 67/47/85 39/27/85 33/50/85
f 39/27/86 17/26/86 33/50/86
f 33/50/36 34/53/36 65/51/36
f 35/52/31 66/43/31 65/44/31
f 35/52/87 36/40/87 58/41/87
f 38/49/88 64/48/88 46/54/88
f 45/76/89 46/54/89 52/57/89
f 46/54/90 64/48/90 62/56/90
f 62/56/49 51/71/49 52/57/49
f 45/74/91 52/57/91 5/58/91
f 52/57/92 44/60/92 5/58/92
f 15/59/93 45/74/93 5/58/93
f 43/61/42 51/71/42 70/62/42
f 42/63/42 70/62/42 71/64/42
f 41/65/94 60/66/94 69/34/94
f 59/67/95 68/72/95 60/66/95
f 71/64/96 61/69/96 59/67/96
f 61/69/42 63/68/42 54/45/42
f 54/45/97 59/67/97 61/69/97
f 63/68/98 62/70/98 64/48/98
f 61/69/42 70/62/42 51/71/42
f 16/28/99 20/23/99 47/24/99
l 3 8
