# Blender v2.81 (sub 16) OBJ File: 'TeoTank.blend'
# www.blender.org
o Body_Cube.001
v -6.039571 3.066936 2.492043
v -6.039571 5.066936 2.492043
v -6.039571 3.066936 -2.507957
v -6.039571 5.066936 -2.507957
v 5.056407 3.066936 4.622326
v 5.056407 5.066936 2.492043
v 5.056407 3.066936 -4.638240
v 5.056407 5.066936 -2.507957
v -1.769299 2.106840 -2.507957
v -1.769299 2.106840 2.492043
v 4.164203 2.106840 -4.638240
v 4.164203 2.106840 4.622326
v -7.407799 3.989192 -1.532878
v -7.407799 3.989192 1.516964
v -7.407799 4.595225 1.516964
v -7.407799 4.595225 -1.532878
v -3.488426 5.543681 2.492043
v -3.488426 5.543681 -2.507957
v 3.620516 5.543681 -2.507957
v 3.620516 5.543681 2.492043
vt 0.875000 0.750000
vt 0.875000 0.500000
vt 0.875000 0.750000
vt 0.375000 0.250000
vt 0.625000 0.500000
vt 0.375000 0.500000
vt 0.375000 0.750000
vt 0.625000 0.750000
vt 0.375000 1.000000
vt 0.375000 0.000000
vt 0.375000 0.000000
vt 0.625000 0.750000
vt 0.375000 0.500000
vt 0.125000 0.750000
vt 0.125000 0.500000
vt 0.375000 1.000000
vt 0.375000 0.750000
vt 0.375000 0.250000
vt 0.625000 0.000000
vt 0.375000 0.250000
vt 0.375000 0.000000
vt 0.625000 0.250000
vt 0.625000 0.250000
vt 0.625000 1.000000
vt 0.375000 1.000000
vt 0.875000 0.500000
vt 0.625000 0.500000
vt 0.875000 0.500000
vt 0.625000 1.000000
vt 0.625000 0.250000
vt 0.625000 1.000000
vt 0.875000 0.750000
vn -0.3259 0.9454 0.0000
vn -0.1303 0.7228 -0.6786
vn 1.0000 0.0000 0.0000
vn -0.1303 0.7228 0.6786
vn -0.2194 -0.9756 0.0000
vn 0.3151 0.9491 0.0000
vn 0.0000 -1.0000 0.0000
vn 0.7325 -0.6807 0.0000
vn -0.3224 0.2996 0.8979
vn -0.1445 -0.6426 -0.7525
vn -1.0000 0.0000 0.0000
vn -0.5589 -0.8292 0.0000
vn -0.5804 0.0000 -0.8144
vn -0.5804 0.0000 0.8144
vn 0.0000 1.0000 0.0000
vn -0.1837 0.9830 0.0000
vn 0.0000 0.0000 1.0000
vn 0.0000 0.0000 -1.0000
vn -0.1445 -0.6426 0.7525
vn -0.3224 0.2996 -0.8979
s off
f 2/1/1 16/2/1 15/3/1
f 3/4/2 8/5/2 7/6/2
f 8/5/3 5/7/3 7/6/3
f 6/8/4 1/9/4 5/7/4
f 3/4/5 10/10/5 1/11/5
f 8/5/6 20/12/6 6/8/6
f 11/13/7 10/14/7 9/15/7
f 5/7/8 11/13/8 7/6/8
f 5/7/9 10/16/9 12/17/9
f 7/6/10 9/18/10 3/4/10
f 15/19/11 13/20/11 14/21/11
f 1/11/12 13/20/12 3/4/12
f 4/22/13 13/20/13 16/23/13
f 2/24/14 14/25/14 1/9/14
f 18/26/15 20/12/15 19/27/15
f 2/1/16 18/26/16 4/28/16
f 6/8/17 17/29/17 2/24/17
f 8/5/18 18/30/18 19/27/18
f 2/1/1 4/28/1 16/2/1
f 3/4/18 4/22/18 8/5/18
f 8/5/3 6/8/3 5/7/3
f 6/8/17 2/24/17 1/9/17
f 3/4/5 9/18/5 10/10/5
f 8/5/6 19/27/6 20/12/6
f 11/13/7 12/17/7 10/14/7
f 5/7/8 12/17/8 11/13/8
f 5/7/19 1/9/19 10/16/19
f 7/6/20 11/13/20 9/18/20
f 15/19/11 16/23/11 13/20/11
f 1/11/12 14/21/12 13/20/12
f 4/22/13 3/4/13 13/20/13
f 2/24/14 15/31/14 14/25/14
f 18/26/15 17/32/15 20/12/15
f 2/1/16 17/32/16 18/26/16
f 6/8/17 20/12/17 17/29/17
f 8/5/18 4/22/18 18/30/18
