# Blender v2.81 (sub 16) OBJ File: 'TeoTank.blend'
# www.blender.org
o Turret_Cube
v 8.735779 7.066692 -1.000000
v 8.735779 5.066692 -1.000000
v 8.735779 7.066692 1.000000
v 8.735779 5.066692 1.000000
v 9.655341 6.447195 -0.380502
v 9.655341 5.686190 -0.380502
v 9.655341 6.447195 0.380502
v 9.655341 5.686190 0.380502
v 7.029024 6.593104 -0.526412
v 7.029024 5.540281 -0.526412
v 7.029024 6.593104 0.526412
v 7.029024 5.540281 0.526412
v 3.611701 6.593104 -0.526412
v 3.611701 5.540281 -0.526412
v 3.611701 6.593104 0.526412
v 3.611701 5.540281 0.526412
v 1.861589 5.540281 -0.526412
v 1.861589 5.540281 0.526412
v 3.611701 5.540281 2.526412
v 3.611701 6.593104 2.526412
v 1.861589 5.540281 2.526412
v 1.861589 6.593104 2.526412
v 3.611701 6.593104 -2.526412
v 3.611701 5.540281 -2.526412
v 1.861589 6.593104 -2.526412
v 1.861589 5.540281 -2.526412
v -3.512953 5.540281 -0.526412
v -3.512953 5.540281 0.526412
v -3.512953 6.593104 0.526412
v -3.512953 6.593104 -0.526412
v -3.512953 5.540281 2.526412
v -3.512953 5.782067 2.526412
v -3.512953 5.782067 -2.526412
v -3.512953 5.540281 -2.526412
v 3.611701 7.926472 0.526412
v 3.611701 7.926472 -0.526412
v -1.851806 7.926472 -2.526412
v 1.861589 7.926472 -2.526412
v 1.861589 7.926472 2.526412
v 2.282299 7.926472 2.526412
v 2.282299 7.926472 -2.526412
v -3.512953 7.926472 0.526412
v -3.512953 7.926472 -0.526412
v -1.851806 7.926472 2.526412
v 10.368852 7.066692 -1.000000
v 10.417464 6.884178 -0.817486
v 10.417464 5.249207 -0.817486
v 10.368852 5.066692 -1.000000
v 10.417464 6.884178 0.817486
v 10.368852 7.066692 1.000000
v 10.368852 5.066692 1.000000
v 10.417464 5.249207 0.817486
v 2.719020 8.652831 0.420010
v 2.719020 8.652831 -0.420010
v -1.064423 8.652831 -2.015756
v 1.507079 8.652831 -2.015756
v 1.507079 8.652831 0.420010
v 1.507079 8.652831 -0.420010
v 1.507079 8.652831 2.015756
v 1.798418 8.652831 2.015756
v 1.798418 8.652831 -2.015756
v -2.214756 8.652831 0.420010
v -2.214756 8.652831 -0.420010
v -1.064423 8.652831 2.015756
vt 0.224424 0.823160
vt 0.097142 0.726245
vt 0.224424 0.726245
vt 0.194285 0.625615
vt 0.576131 0.713968
vt 0.623948 0.785082
vt 0.576131 0.811022
vt 0.448849 0.822921
vt 0.576131 0.726022
vt 0.576131 0.822921
vt 0.576131 0.616914
vt 0.625270 0.688028
vt 0.576131 0.713968
vt 0.576131 0.856197
vt 0.624370 0.811022
vt 0.624370 0.856197
vt 0.841219 0.096900
vt 0.968501 0.000000
vt 0.968501 0.096900
vt 0.625429 0.616914
vt 0.576131 0.545800
vt 0.625429 0.519860
vt 0.448849 0.519719
vt 0.321567 0.422806
vt 0.448849 0.422806
vt 0.127282 0.625615
vt 0.194285 0.422813
vt 0.351706 0.621683
vt 0.321567 0.519719
vt 0.871359 0.197346
vt 0.448849 0.726022
vt 0.545991 0.625575
vt 0.933263 0.400115
vt 0.848742 0.518838
vt 0.841219 0.400115
vt 0.418709 0.621683
vt 0.351706 0.824481
vt 0.478988 0.625575
vt 0.545991 0.422806
vt 0.938362 0.197346
vt 0.871359 0.400115
vt 0.000000 0.318953
vt 0.127282 0.000000
vt 0.127282 0.318953
vt 0.127282 0.422813
vt 0.926076 0.881277
vt 0.841219 0.818780
vt 0.926076 0.818780
vt 0.194285 0.318953
vt 0.774217 0.422747
vt 0.841219 0.318903
vt 0.841219 0.422747
vt 0.933263 0.518838
vt 1.000000 0.400115
vt 1.000000 0.518838
vt 0.774217 0.318903
vt 0.689360 0.343866
vt 0.689360 0.318903
vt 0.933263 0.700058
vt 0.848742 0.581335
vt 0.933263 0.581335
vt 0.841219 0.422747
vt 0.774217 0.526591
vt 0.774217 0.422747
vt 0.841219 0.526591
vt 0.825832 0.845493
vt 0.321567 0.422813
vt 1.000000 0.581335
vt 0.993079 0.818780
vt 0.993079 0.881277
vt 0.977691 1.000000
vt 0.977691 0.700058
vt 0.993079 0.700058
vt 0.321567 0.000000
vt 0.321567 0.318953
vt 0.194285 0.000000
vt 0.825832 0.000000
vt 0.841219 0.000000
vt 0.841219 1.000000
vt 0.841219 0.881277
vt 0.643133 0.098579
vt 0.509080 0.078080
vt 0.515851 0.000000
vt 0.643133 0.316044
vt 0.643133 0.298757
vt 0.643133 0.146175
vt 0.689360 0.098565
vt 0.689360 0.526591
vt 0.643133 0.529449
vt 0.689360 0.501628
vt 0.643134 0.699318
vt 0.643133 0.546736
vt 0.455620 0.078080
vt 0.448849 0.000000
vt 0.689360 0.746928
vt 0.841219 0.700058
vt 0.564332 0.930810
vt 0.448849 0.941644
vt 0.460693 0.930810
vt 0.575627 0.822921
vt 0.460693 0.833756
vt 0.575627 0.941644
vt 0.564332 0.833756
vt 0.625429 0.519860
vt 0.576131 0.448746
vt 0.625429 0.422806
vt 0.455620 0.370871
vt 0.509080 0.298949
vt 0.509080 0.370871
vt 0.455620 0.298949
vt 0.354065 0.316238
vt 0.354065 0.298949
vt 0.610635 0.316238
vt 0.610635 0.146346
vt 0.610635 0.298949
vt 0.354065 0.146346
vt 0.321567 0.343914
vt 0.448849 0.422806
vt 0.643133 0.343914
vt 0.321567 0.098579
vt 0.515851 0.422806
vt 0.097142 0.823160
vt 0.623948 0.739908
vt 0.625270 0.642854
vt 0.576131 0.811022
vt 0.841219 0.000000
vt 0.576131 0.590974
vt 0.418709 0.824481
vt 0.478988 0.422806
vt 0.938362 0.400115
vt 0.000000 0.000000
vt 0.000000 0.422813
vt 0.841219 0.700058
vt 0.841219 0.845493
vt 1.000000 0.700058
vt 0.993079 1.000000
vt 0.576131 0.493920
vn 0.0000 -1.0000 0.0000
vn -0.2674 -0.9636 0.0000
vn 0.4974 0.8675 0.0000
vn 0.0000 0.0000 1.0000
vn 0.4974 -0.8675 0.0000
vn 1.0000 0.0000 0.0000
vn 0.0000 0.0000 -1.0000
vn 0.4974 0.0000 -0.8675
vn 0.0000 1.0000 0.0000
vn -0.2674 0.9636 0.0000
vn -0.2674 0.0000 -0.9636
vn -0.2674 0.0000 0.9636
vn 0.6407 0.6388 0.4259
vn -1.0000 0.0000 0.0000
vn -0.7693 0.0000 0.6389
vn -0.4330 0.8265 0.3596
vn 0.0000 0.5751 0.8181
vn 0.0000 0.5751 -0.8181
vn -0.4883 0.8727 0.0000
vn -0.7672 0.5943 -0.2410
vn 0.9663 0.0000 -0.2574
vn 0.9663 0.0000 0.2574
vn 0.9663 0.2574 0.0000
vn 0.9663 -0.2574 0.0000
vn 0.4974 0.0000 0.8675
vn 0.5589 0.7413 -0.3715
vn 0.6348 0.6804 0.3662
vn -0.4969 0.7904 -0.3582
vn 0.6311 0.7757 0.0000
vn 0.6407 0.6388 -0.4259
vn -0.7672 0.5943 0.2410
vn -0.4969 0.7904 0.3582
vn -0.7693 0.0000 -0.6389
vn 0.6348 0.6804 -0.3662
vn 0.5589 0.7413 0.3715
vn -0.4330 0.8265 -0.3596
s off
f 48/1/1 4/2/1 2/3/1
f 4/2/2 10/4/2 2/3/2
f 47/5/3 8/6/3 52/7/3
f 50/8/4 4/9/4 51/10/4
f 49/11/5 5/12/5 46/13/5
f 5/14/6 8/15/6 6/16/6
f 1/17/7 48/18/7 2/19/7
f 52/20/8 7/21/8 49/22/8
f 1/23/9 50/24/9 45/25/9
f 12/26/1 14/27/1 10/4/1
f 1/23/10 11/28/10 3/29/10
f 2/19/11 9/30/11 1/17/11
f 3/31/12 12/32/12 4/9/12
f 20/33/13 35/34/13 40/35/13
f 9/36/9 15/37/9 11/28/9
f 11/38/4 16/39/4 12/32/4
f 10/40/7 13/41/7 9/30/7
f 21/42/1 28/43/1 18/44/1
f 16/45/1 21/42/1 18/44/1
f 29/46/14 43/47/14 30/48/14
f 16/45/1 17/49/1 14/27/1
f 20/50/4 21/51/4 19/52/4
f 15/53/6 19/54/6 16/55/6
f 22/56/4 40/57/4 39/58/4
f 23/59/6 36/60/6 13/61/6
f 24/62/7 25/63/7 23/64/7
f 26/65/7 33/66/7 25/63/7
f 17/49/1 24/67/1 14/27/1
f 14/68/6 23/59/6 13/61/6
f 29/46/14 27/69/14 28/70/14
f 28/70/14 32/71/14 29/46/14
f 27/69/14 33/72/14 34/73/14
f 17/49/1 34/74/1 26/75/1
f 18/44/1 27/76/1 17/49/1
f 21/51/4 32/77/4 31/78/4
f 29/46/15 44/79/15 42/80/15
f 13/61/6 35/34/6 15/53/6
f 44/81/16 62/82/16 42/83/16
f 39/58/17 60/84/17 59/85/17
f 39/58/17 64/86/17 44/87/17
f 38/88/18 61/89/18 41/90/18
f 38/88/18 55/91/18 56/92/18
f 42/83/19 63/93/19 43/94/19
f 22/56/4 44/87/4 32/77/4
f 25/63/7 37/95/7 38/88/7
f 25/63/7 41/90/7 23/64/7
f 30/48/20 37/96/20 33/72/20
f 47/97/21 45/98/21 46/99/21
f 51/100/22 49/101/22 50/8/22
f 50/8/23 46/99/23 45/98/23
f 48/102/24 52/103/24 51/100/24
f 46/104/25 6/105/25 47/106/25
f 54/107/9 57/108/9 53/109/9
f 58/110/9 61/111/9 56/112/9
f 57/108/9 60/113/9 53/109/9
f 57/108/9 64/114/9 59/115/9
f 58/110/9 62/82/9 57/108/9
f 58/110/9 55/116/9 63/93/9
f 41/117/26 54/107/26 36/118/26
f 40/119/27 53/109/27 60/113/27
f 37/120/28 63/93/28 55/116/28
f 36/118/29 53/109/29 35/121/29
f 48/1/1 51/122/1 4/2/1
f 4/2/2 12/26/2 10/4/2
f 47/5/3 6/123/3 8/6/3
f 50/8/4 3/31/4 4/9/4
f 49/11/5 7/124/5 5/12/5
f 5/14/6 7/125/6 8/15/6
f 1/17/7 45/126/7 48/18/7
f 52/20/8 8/127/8 7/21/8
f 1/23/9 3/29/9 50/24/9
f 12/26/1 16/45/1 14/27/1
f 1/23/10 9/36/10 11/28/10
f 2/19/11 10/40/11 9/30/11
f 3/31/12 11/38/12 12/32/12
f 20/33/6 15/53/6 35/34/6
f 9/36/9 13/128/9 15/37/9
f 11/38/4 15/129/4 16/39/4
f 10/40/7 14/130/7 13/41/7
f 21/42/1 31/131/1 28/43/1
f 16/45/1 19/132/1 21/42/1
f 29/46/14 42/80/14 43/47/14
f 16/45/1 18/44/1 17/49/1
f 20/50/4 22/56/4 21/51/4
f 15/53/6 20/33/6 19/54/6
f 22/56/4 20/50/4 40/57/4
f 23/59/30 41/133/30 36/60/30
f 24/62/7 26/65/7 25/63/7
f 26/65/7 34/134/7 33/66/7
f 17/49/1 26/75/1 24/67/1
f 14/68/6 24/135/6 23/59/6
f 29/46/14 30/48/14 27/69/14
f 28/70/14 31/136/14 32/71/14
f 27/69/14 30/48/14 33/72/14
f 17/49/1 27/76/1 34/74/1
f 18/44/1 28/43/1 27/76/1
f 21/51/4 22/56/4 32/77/4
f 29/46/31 32/71/31 44/79/31
f 13/61/6 36/60/6 35/34/6
f 44/81/32 64/114/32 62/82/32
f 39/58/17 40/57/17 60/84/17
f 39/58/17 59/85/17 64/86/17
f 38/88/18 56/92/18 61/89/18
f 38/88/18 37/95/18 55/91/18
f 42/83/19 62/82/19 63/93/19
f 22/56/4 39/58/4 44/87/4
f 25/63/7 33/66/7 37/95/7
f 25/63/7 38/88/7 41/90/7
f 30/48/33 43/47/33 37/96/33
f 47/97/21 48/102/21 45/98/21
f 51/100/22 52/103/22 49/101/22
f 50/8/23 49/101/23 46/99/23
f 48/102/24 47/97/24 52/103/24
f 46/104/25 5/137/25 6/105/25
f 54/107/9 58/110/9 57/108/9
f 58/110/9 54/107/9 61/111/9
f 57/108/9 59/115/9 60/113/9
f 57/108/9 62/82/9 64/114/9
f 58/110/9 63/93/9 62/82/9
f 58/110/9 56/112/9 55/116/9
f 41/117/34 61/111/34 54/107/34
f 40/119/35 35/121/35 53/109/35
f 37/120/36 43/94/36 63/93/36
f 36/118/29 54/107/29 53/109/29
