# Blender v2.81 (sub 16) OBJ File: 'Helicopter.blend'
# www.blender.org
o Cylinder
v 0.120949 4.275307 -0.198869
v 0.050869 4.275307 0.102282
v -0.140593 4.275307 -0.118176
v 0.120949 4.371461 -0.198869
v 0.050869 4.371461 0.102282
v -0.140593 4.371461 -0.118176
v 0.010408 4.371461 -0.071588
v -0.545200 4.275317 -1.856868
v -0.545200 4.371471 -1.856868
v -0.283658 4.275317 -1.937561
v -0.283658 4.371471 -1.937561
v -1.246000 4.275296 1.154634
v -1.246000 4.371451 1.154634
v -1.054538 4.275296 1.375092
v -1.054538 4.371451 1.375092
v 1.630963 4.275305 0.267013
v 1.630963 4.371460 0.267013
v 1.560883 4.275305 0.568163
v 1.560883 4.371460 0.568163
v 4.907545 4.308959 1.277928
v 4.837465 4.308959 1.579078
v 4.907545 4.337806 1.277928
v 4.837465 4.337806 1.579078
v -1.161614 4.308971 -5.710351
v -1.423156 4.308971 -5.629658
v -1.161614 4.337817 -5.710351
v -1.423156 4.337817 -5.629658
v -3.453163 4.308950 4.136966
v -3.644625 4.308950 3.916509
v -3.644625 4.337797 3.916509
v -3.453163 4.337797 4.136966
v 5.558626 4.308959 1.478804
v 5.558626 4.337806 1.478804
v 5.542422 4.308959 1.548438
v 5.542422 4.337806 1.548438
v -3.948657 4.308950 4.664044
v -3.948657 4.337797 4.664044
v -3.929787 4.308950 4.685771
v -3.929787 4.337797 4.685771
v -1.597613 4.308971 -6.379339
v -1.597613 4.337817 -6.379339
v -1.576243 4.308971 -6.385932
v -1.576243 4.337817 -6.385932
v 0.120949 4.118236 -0.198869
v -0.140593 4.118236 -0.118176
v 0.050869 4.118236 0.102282
v 0.015935 3.994391 -0.077952
v 0.012431 3.994391 -0.062894
v 0.002858 3.994391 -0.073917
v 0.010408 3.994391 -0.071588
v 0.741282 4.298115 0.134138
v 0.741282 4.346137 0.134138
v 0.732698 4.298115 0.171028
v 0.732698 4.346137 0.171028
v -0.159254 4.291925 -0.915924
v -0.209303 4.291925 -0.900483
v -0.209303 4.346286 -0.900483
v -0.159254 4.346286 -0.915924
v -0.541379 4.289106 0.517953
v -0.501595 4.289106 0.563762
v -0.541379 4.349105 0.517953
v -0.501595 4.349105 0.563762
vt 0.500000 0.444692
vt 0.511897 0.388686
vt 0.532502 0.485691
vt 0.455601 0.459698
vt 0.468050 0.155483
vt 0.912042 0.124514
vt 0.468050 0.124511
vt 0.488656 0.155483
vt 0.932648 0.124514
vt 0.932648 0.155487
vt 0.336634 1.019752
vt 0.455601 0.459698
vt 0.413535 1.045744
vt 0.532502 0.485691
vt 0.455601 0.124511
vt 0.130576 0.155480
vt 0.455601 0.155483
vt 0.511897 0.124511
vt 0.186872 0.155480
vt 0.186872 0.124507
vt 0.186872 -0.021301
vt 0.511897 0.388686
vt 0.130576 0.049711
vt 0.532502 0.124511
vt 0.976494 0.155483
vt 0.976494 0.124510
vt 0.955888 0.155483
vt 0.511897 0.155483
vt 0.976494 0.335624
vt 0.955888 0.238620
vt 0.183728 0.335624
vt 1.126541 -0.087008
vt 0.163122 0.238620
vt 0.183728 0.335624
vt 1.126541 -0.087008
vt 1.147146 0.009996
vt 0.163122 0.124510
vt 1.126541 0.155483
vt 0.163122 0.155483
vt 0.183728 0.155483
vt 1.147146 0.124510
vt 0.183728 0.124510
vt 0.336634 0.019752
vt 0.155388 1.261006
vt 0.413535 0.045744
vt 0.413535 0.045744
vt 0.078487 1.235014
vt 0.336634 0.019752
vt 0.139881 0.155487
vt 1.103300 0.124514
vt 1.103300 0.155487
vt 0.119276 0.124514
vt 1.082694 0.155487
vt 1.082694 0.124514
vt -0.518399 -0.910935
vt -0.574695 -0.839923
vt 0.130576 1.049711
vt -0.518399 0.089065
vt 0.186872 0.978699
vt -0.518399 0.124507
vt 0.143026 0.124507
vt -0.562246 0.155480
vt 0.143026 0.155480
vt 0.354380 0.155483
vt 0.545819 0.124510
vt 0.354380 0.124510
vt 0.333774 0.124510
vt 0.541054 0.155483
vt 0.333774 0.155483
vt 0.354380 0.009996
vt 0.541054 -0.077138
vt 0.545819 -0.054708
vt 0.354380 1.009996
vt 0.541054 0.922862
vt 0.333774 0.912992
vt 0.853012 0.155483
vt 0.835231 0.124510
vt 0.853012 0.124510
vt 0.230521 0.124507
vt 0.039630 0.155480
vt 0.230521 0.155480
vt 0.174225 0.155480
vt 0.034082 0.124507
vt 0.174225 0.124507
vt 0.274367 0.089065
vt 0.128676 -0.080713
vt 0.134225 -0.087711
vt 0.274367 0.089065
vt 0.128676 -0.080713
vt 0.218071 0.160077
vt 0.134225 0.124507
vt 0.128676 0.155480
vt 0.128676 0.124507
vt 0.289928 0.155487
vt 0.481366 0.124514
vt 0.289928 0.124514
vt 0.310534 0.124514
vt 0.483050 0.155487
vt 0.310534 0.155487
vt 0.871253 0.235014
vt 0.826241 0.478619
vt 0.819957 0.476495
vt 0.078487 0.235014
vt 0.033474 0.478619
vt 0.155388 0.261006
vt 0.826241 0.124514
vt 0.819957 0.155487
vt 0.826241 0.155487
vt 0.455601 0.073916
vt 0.411754 0.073916
vt 0.411754 0.124511
vt 0.488656 0.073916
vt 0.488656 0.124511
vt 0.500000 0.444692
vt 0.501625 0.446742
vt 0.500595 0.441891
vt 0.497780 0.445442
vt 0.532502 0.485691
vt 0.714900 0.378425
vt 0.712376 0.366542
vt 0.511897 0.388686
vt 0.712376 0.366542
vt 0.714900 0.378425
vt 0.394199 0.147326
vt 0.403619 0.131858
vt 0.403619 0.147326
vt 0.450114 0.716663
vt 0.455601 0.459698
vt 0.435398 0.711689
vt 0.450114 0.716663
vt 0.435398 0.711689
vt 0.450114 0.147374
vt 0.435398 0.129864
vt 0.435398 0.147374
vt 0.337757 0.254794
vt 0.337757 0.254794
vt 0.349455 0.240038
vt 0.349455 0.240038
vt 0.305609 0.148282
vt 0.293911 0.128956
vt 0.293911 0.148282
vt 0.912042 0.155487
vt 0.413535 1.045744
vt 0.336634 1.019752
vt 0.130576 0.124507
vt 0.130576 0.049711
vt 0.186872 -0.021301
vt 0.532502 0.155483
vt 0.955888 0.124510
vt 0.955888 0.238620
vt 0.976494 0.335624
vt 1.147146 0.009996
vt 0.163122 0.238620
vt 1.126541 0.124510
vt 1.147146 0.155483
vt 0.078487 1.235014
vt 0.155388 1.261006
vt 0.139881 0.124514
vt 0.119276 0.155487
vt -0.574695 0.160077
vt -0.518399 0.155480
vt -0.562246 0.124507
vt 0.545819 0.155483
vt 0.541054 0.124510
vt 0.333774 -0.087008
vt 0.545819 0.945292
vt 0.835231 0.155483
vt 0.039630 0.124507
vt 0.034082 0.155480
vt 0.218071 0.160077
vt 0.134225 -0.087711
vt 0.134225 0.155480
vt 0.481366 0.155487
vt 0.483050 0.124514
vt 0.948155 0.261006
vt 0.027191 0.476495
vt 0.819957 0.124514
vt 0.532502 0.073916
vt 0.468050 0.073916
vt 0.394199 0.131858
vt 0.450114 0.129864
vt 0.305609 0.128956
vn 0.0000 1.0000 0.0000
vn -0.9740 -0.0000 0.2267
vn 0.9740 0.0000 -0.2267
vn -0.0000 -1.0000 -0.0000
vn -0.7550 0.0000 -0.6557
vn 0.7550 0.0000 0.6557
vn 0.2948 0.0000 -0.9556
vn -0.2948 -0.0000 0.9556
vn 0.0096 -1.0000 0.0022
vn 0.0096 1.0000 0.0022
vn -0.0026 -1.0000 -0.0083
vn -0.0026 1.0000 -0.0083
vn 0.9740 0.0000 -0.2266
vn -0.0070 -1.0000 0.0061
vn -0.0070 1.0000 0.0061
vn 0.0434 0.0000 0.9991
vn 0.9740 0.0000 0.2266
vn -0.9263 0.0000 -0.3767
vn -0.7550 0.0000 0.6557
vn -0.9740 0.0000 0.2266
vn 0.8523 0.0000 -0.5231
vn -0.2948 0.0000 -0.9556
vn 0.9740 0.0000 0.2267
vn 0.4520 -0.7892 -0.4157
vn 0.3637 -0.9277 0.0846
vn -0.1003 0.0000 0.9950
vn -0.3096 0.9481 -0.0721
vn -0.0972 -0.9441 -0.3149
vn -0.6284 -0.7692 -0.1156
vn 0.9314 0.0000 -0.3640
vn 0.0839 0.9586 0.2721
vn -0.2613 -0.9382 0.2269
vn -0.8461 0.0000 -0.5331
vn 0.2136 -0.8048 0.5537
vn 0.2306 0.9522 -0.2003
vn 0.4730 0.0000 -0.8811
vn 0.1556 -0.8074 0.5691
vn -0.9962 0.0000 0.0875
vn 0.4878 -0.7855 -0.3809
vn -0.6111 -0.7714 -0.1778
vn 0.6411 0.0000 0.7675
s off
f 7/1/1 5/2/1 4/3/1
f 7/1/1 6/4/1 5/2/1
f 7/1/1 4/3/1 6/4/1
f 6/5/2 8/6/2 3/7/2
f 4/8/3 10/9/3 11/10/3
f 4/3/1 9/11/1 6/4/1
f 3/12/4 10/13/4 1/14/4
f 3/15/5 13/16/5 6/17/5
f 2/18/6 15/19/6 14/20/6
f 6/4/1 15/21/1 5/2/1
f 2/22/4 12/23/4 3/12/4
f 1/24/7 17/25/7 16/26/7
f 2/18/8 19/27/8 5/28/8
f 5/2/1 17/29/1 4/3/1
f 1/14/4 18/30/4 2/22/4
f 16/31/9 21/32/9 18/33/9
f 17/34/10 23/35/10 22/36/10
f 18/37/8 23/38/8 19/39/8
f 17/40/7 20/41/7 16/42/7
f 8/43/11 24/44/11 10/45/11
f 11/46/12 27/47/12 9/48/12
f 11/49/13 24/50/13 26/51/13
f 8/52/2 27/53/2 25/54/2
f 12/23/14 28/55/14 29/56/14
f 13/57/15 31/58/15 15/59/15
f 15/19/6 28/60/6 14/20/6
f 12/61/5 30/62/5 13/63/5
f 22/64/7 32/65/7 20/66/7
f 21/67/16 35/68/16 23/69/16
f 22/70/1 35/71/1 33/72/1
f 20/73/4 34/74/4 21/75/4
f 33/76/17 34/77/17 32/78/17
f 29/79/18 37/80/18 30/81/18
f 31/82/6 38/83/6 28/84/6
f 31/85/1 37/86/1 39/87/1
f 28/88/4 36/89/4 29/90/4
f 38/91/19 37/92/19 36/93/19
f 27/94/20 40/95/20 25/96/20
f 24/97/21 43/98/21 26/99/21
f 27/100/1 43/101/1 41/102/1
f 25/103/4 42/104/4 24/105/4
f 42/106/22 41/107/22 43/108/22
f 1/24/22 45/109/22 3/15/22
f 3/7/19 46/110/19 2/111/19
f 2/111/23 44/112/23 1/113/23
f 50/114/4 47/115/4 48/116/4
f 50/114/4 48/116/4 49/117/4
f 49/117/4 47/115/4 50/114/4
f 44/118/24 51/119/24 47/115/24
f 47/115/25 53/120/25 48/116/25
f 46/121/26 53/120/26 54/122/26
f 46/121/27 52/123/27 44/118/27
f 54/124/17 51/125/17 52/126/17
f 49/117/28 55/127/28 47/115/28
f 45/128/29 56/129/29 49/117/29
f 44/118/30 55/127/30 58/130/30
f 44/118/31 57/131/31 45/128/31
f 58/132/22 56/133/22 57/134/22
f 48/116/32 59/135/32 49/117/32
f 45/128/33 59/135/33 61/136/33
f 46/121/34 60/137/34 48/116/34
f 45/128/35 62/138/35 46/121/35
f 61/139/19 60/140/19 62/141/19
f 6/5/2 9/142/2 8/6/2
f 4/8/3 1/113/3 10/9/3
f 4/3/1 11/143/1 9/11/1
f 3/12/4 8/144/4 10/13/4
f 3/15/5 12/145/5 13/16/5
f 2/18/6 5/28/6 15/19/6
f 6/4/1 13/146/1 15/21/1
f 2/22/4 14/147/4 12/23/4
f 1/24/7 4/148/7 17/25/7
f 2/18/8 18/149/8 19/27/8
f 5/2/1 19/150/1 17/29/1
f 1/14/4 16/151/4 18/30/4
f 16/31/9 20/152/9 21/32/9
f 17/34/10 19/153/10 23/35/10
f 18/37/8 21/154/8 23/38/8
f 17/40/7 22/155/7 20/41/7
f 8/43/11 25/156/11 24/44/11
f 11/46/12 26/157/12 27/47/12
f 11/49/3 10/158/3 24/50/3
f 8/52/2 9/159/2 27/53/2
f 12/23/14 14/147/14 28/55/14
f 13/57/15 30/160/15 31/58/15
f 15/19/6 31/161/6 28/60/6
f 12/61/5 29/162/5 30/62/5
f 22/64/7 33/163/7 32/65/7
f 21/67/16 34/164/16 35/68/16
f 22/70/1 23/165/1 35/71/1
f 20/73/4 32/166/4 34/74/4
f 33/76/23 35/167/23 34/77/23
f 29/79/18 36/168/18 37/80/18
f 31/82/6 39/169/6 38/83/6
f 31/85/1 30/170/1 37/86/1
f 28/88/4 38/171/4 36/89/4
f 38/91/19 39/172/19 37/92/19
f 27/94/2 41/173/2 40/95/2
f 24/97/21 42/174/21 43/98/21
f 27/100/1 26/175/1 43/101/1
f 25/103/4 40/176/4 42/104/4
f 42/106/22 40/177/22 41/107/22
f 1/24/22 44/178/22 45/109/22
f 3/7/19 45/179/19 46/110/19
f 2/111/23 46/110/23 44/112/23
f 44/118/36 52/123/36 51/119/36
f 47/115/25 51/119/25 53/120/25
f 46/121/37 48/116/37 53/120/37
f 46/121/27 54/122/27 52/123/27
f 54/124/17 53/180/17 51/125/17
f 49/117/28 56/129/28 55/127/28
f 45/128/38 57/131/38 56/129/38
f 44/118/39 47/115/39 55/127/39
f 44/118/31 58/130/31 57/131/31
f 58/132/22 55/181/22 56/133/22
f 48/116/32 60/137/32 59/135/32
f 45/128/40 49/117/40 59/135/40
f 46/121/41 62/138/41 60/137/41
f 45/128/35 61/136/35 62/138/35
f 61/139/19 59/182/19 60/140/19
