# Blender v2.81 (sub 16) OBJ File: 'Helicopter.blend'
# www.blender.org
o Cylinder.001
v 0.194927 2.310754 6.943770
v 0.194927 2.376140 7.216469
v 0.194927 2.514242 7.027247
v 0.234151 2.310754 6.943770
v 0.234151 2.376141 7.216469
v 0.234151 2.573015 7.027247
v 0.241479 2.424174 7.059553
v 0.187605 2.751447 6.314307
v 0.241485 2.751447 6.314307
v 0.187605 2.495056 6.245607
v 0.241485 2.495056 6.245607
v 0.187593 3.100629 7.520914
v 0.241473 3.100629 7.520914
v 0.187593 2.912938 7.708605
v 0.241473 2.912938 7.708605
v 0.187598 1.616537 7.153982
v 0.241478 1.616537 7.153983
v 0.187598 1.685237 7.410373
v 0.241478 1.685237 7.410373
v 0.187598 1.287029 7.242273
v 0.187598 1.355728 7.498663
v 0.241478 1.287029 7.242273
v 0.241478 1.355728 7.498663
v 0.187605 2.583348 5.916099
v 0.187605 2.839739 5.984798
v 0.241485 2.583348 5.916099
v 0.241485 2.839739 5.984798
v 0.187593 3.154154 7.949823
v 0.187593 3.341845 7.762132
v 0.241473 3.341844 7.762133
v 0.241473 3.154154 7.949823
v 0.187598 0.967900 7.327783
v 0.241477 0.967900 7.327783
v 0.187598 0.989162 7.407133
v 0.241477 0.989162 7.407133
v 0.187593 3.430243 8.140970
v 0.241473 3.430243 8.140970
v 0.187593 3.387772 8.183441
v 0.241473 3.387772 8.183441
v 0.187605 2.925249 5.665670
v 0.241485 2.925249 5.665670
v 0.187605 2.859833 5.648142
v 0.241485 2.859833 5.648142
v 0.099585 2.369992 7.005372
v 0.099585 2.498188 7.039721
v 0.099585 2.404342 7.133567
v 0.030189 2.421465 7.056844
v 0.030189 2.423182 7.063254
v 0.030189 2.427875 7.058561
v 0.030189 2.424174 7.059553
v 0.200379 2.065935 7.147128
v 0.227288 2.065935 7.147128
v 0.200379 2.070143 7.162831
v 0.227288 2.070143 7.162831
v 0.196911 2.507334 6.700131
v 0.196911 2.531866 6.706705
v 0.227372 2.531866 6.706705
v 0.227372 2.507334 6.700131
v 0.195331 2.694633 7.310512
v 0.195331 2.675133 7.330012
v 0.228951 2.694633 7.310512
v 0.228951 2.675133 7.330012
vt 0.147665 0.528238
vt 0.097120 0.512766
vt 0.184960 0.491704
vt 0.158071 0.576182
vt 0.387718 0.633657
vt 0.158071 0.557250
vt 0.582984 0.184960
vt 0.565721 0.409847
vt 0.585705 0.409847
vt 0.387718 0.633657
vt 0.184960 0.491704
vt 0.409847 0.551070
vt -0.000945 0.746133
vt -0.000945 0.746133
vt 0.568437 0.512766
vt 0.585700 0.685675
vt 0.565717 0.685675
vt -0.061403 0.685675
vt 0.097120 0.512766
vt 0.582984 0.491704
vt 0.565718 0.268089
vt 0.568437 0.491704
vt 0.585702 0.290218
vt 0.582984 0.512766
vt 0.117248 0.268089
vt 0.117248 0.268089
vt 0.034662 0.290218
vt 0.006222 0.184079
vt 0.006222 0.184079
vt 0.088809 0.161950
vt 0.565718 0.290218
vt 0.585702 0.184079
vt 0.585702 0.161950
vt 0.565718 0.161950
vt 0.515985 0.579510
vt 0.409847 0.551070
vt 0.493856 0.662097
vt 0.565721 0.515985
vt 0.585705 0.515985
vt 0.585705 0.387718
vt 0.565721 0.493856
vt 0.565721 0.387718
vt 0.938597 0.685675
vt 0.921355 0.823831
vt 0.999055 0.746133
vt 0.938597 0.685675
vt 0.921355 0.823831
vt 0.860898 0.763374
vt 0.585700 0.938597
vt 0.565716 0.860898
vt 0.565717 0.938597
vt 0.565717 0.999055
vt 0.585700 0.921355
vt 0.585700 0.999055
vt 0.585702 0.059155
vt 0.565718 0.059155
vt 0.565718 0.184079
vt 0.585702 0.066003
vt 0.035705 0.066003
vt 0.061265 0.059155
vt 0.088809 0.161950
vt 0.035705 0.066003
vt 0.585702 0.061265
vt 0.565718 0.035705
vt 0.565718 0.061265
vt 0.565717 0.921355
vt 0.585700 0.799327
vt 0.585700 0.860898
vt 0.565717 0.785647
vt 0.799327 0.852305
vt 0.785647 0.838625
vt 0.860898 0.763374
vt 0.799327 0.852305
vt 0.585700 0.838625
vt 0.565717 0.852305
vt 0.565717 0.838625
vt 0.585705 0.493856
vt 0.565721 0.596652
vt 0.565721 0.579510
vt 0.585705 0.668569
vt 0.585705 0.579510
vt 0.602297 0.668569
vt 0.596652 0.689641
vt 0.493856 0.662097
vt 0.602297 0.668569
vt 0.565721 0.668569
vt 0.585705 0.689641
vt 0.568437 0.557250
vt 0.533075 0.510786
vt 0.533075 0.552079
vt 0.568437 0.158071
vt 0.533075 0.123824
vt 0.568437 0.097120
vt 0.533075 0.165117
vt 0.568437 0.184960
vt 0.147665 0.528238
vt 0.148537 0.527366
vt 0.146473 0.527919
vt 0.147984 0.529430
vt 0.165117 0.510786
vt 0.119456 0.412845
vt 0.114398 0.414200
vt 0.533075 0.521850
vt 0.570459 0.414200
vt 0.580439 0.414200
vt 0.123824 0.521850
vt 0.119456 0.412845
vt 0.580439 0.114398
vt 0.570459 0.119456
vt 0.580439 0.119456
vt 0.261322 0.562927
vt 0.263439 0.555025
vt 0.533075 0.154053
vt 0.569172 0.261322
vt 0.507337 0.147984
vt 0.263439 0.555025
vt 0.261322 0.562927
vt 0.154053 0.552079
vt 0.580470 0.555025
vt 0.569172 0.562927
vt 0.580470 0.562927
vt 0.060547 0.609075
vt 0.066828 0.615357
vt 0.568587 0.066828
vt 0.581056 0.066828
vt 0.568587 0.609075
vt 0.507337 0.527919
vt 0.066828 0.615356
vt 0.060547 0.609075
vt 0.568587 0.060547
vt 0.581056 0.060547
vt -0.061403 0.685675
vt 0.585702 0.268089
vt 0.034662 0.290218
vt 0.515985 0.579510
vt 0.999055 0.746133
vt 0.565718 0.066003
vt 0.061265 0.059155
vt 0.585702 0.035705
vt 0.565717 0.799327
vt 0.585700 0.785647
vt 0.785647 0.838625
vt 0.585700 0.852305
vt 0.585705 0.596652
vt 0.596652 0.689641
vt 0.565721 0.689641
vt 0.114398 0.414200
vt 0.570459 0.114398
vt 0.580470 0.261322
vt 0.569172 0.555025
vt 0.581056 0.609075
vn 0.9962 -0.0852 0.0204
vn 0.9958 0.0633 0.0659
vn 0.9954 0.0291 -0.0915
vn -0.8167 0.5450 0.1897
vn 0.0000 -0.9669 -0.2552
vn 1.0000 -0.0030 0.0095
vn -0.9999 -0.0026 0.0098
vn 0.0000 0.6832 -0.7302
vn 0.0000 -0.6758 0.7371
vn 0.9999 -0.0070 -0.0073
vn -1.0000 -0.0077 -0.0057
vn 0.0000 -0.2898 -0.9571
vn 0.0000 0.2702 0.9628
vn 0.9999 0.0098 -0.0024
vn -0.9999 0.0099 -0.0026
vn -1.0000 0.0000 -0.0000
vn 1.0000 -0.0000 -0.0000
vn 0.0000 0.2588 0.9659
vn 0.0000 -0.2588 -0.9659
vn 0.0000 -0.9659 -0.2588
vn 0.0000 0.9659 0.2588
vn 0.0000 -0.7071 0.7071
vn 0.0000 0.7071 -0.7071
vn 0.0000 -0.2423 0.9702
vn 0.0000 -0.9659 0.2588
vn 0.0000 0.9738 -0.2272
vn 0.0000 0.7071 0.7071
vn 0.0000 -0.6959 -0.7181
vn 0.0000 0.2588 -0.9659
vn -0.1676 0.2552 -0.9523
vn -0.2640 0.7791 0.5686
vn -0.4130 -0.8856 0.2123
vn -0.7237 -0.4738 -0.5018
vn -0.9071 -0.4065 0.1089
vn 0.0000 0.0872 0.9962
vn 0.9327 0.3482 -0.0933
vn -0.9104 0.1071 -0.3997
vn -0.7233 0.6755 -0.1431
vn 0.0000 -0.9119 -0.4103
vn 0.9327 -0.0934 0.3484
vn -0.9118 0.2903 0.2903
vn 0.0000 0.8094 -0.5872
vn -0.7231 -0.2194 0.6549
vn 0.9312 -0.2578 -0.2578
vn 0.0000 0.9701 0.2428
vn 0.9999 -0.0026 0.0098
vn -1.0000 -0.0037 0.0090
vn -0.6905 0.4608 -0.5576
vn 0.9999 -0.0072 -0.0072
vn -0.9999 -0.0071 -0.0071
vn 0.9999 0.0099 -0.0026
vn -0.9999 0.0098 -0.0024
vn -0.3403 0.3569 -0.8699
vn -0.0265 0.7069 0.7069
vn -0.4549 -0.8602 0.2305
vn 0.0000 -0.4226 -0.9063
vn -0.9071 -0.4066 0.1090
vn -0.7237 -0.1595 0.6715
vn 0.9327 0.3483 -0.0933
vn 0.0000 0.9949 0.1006
vn -0.7233 -0.5135 -0.4617
vn -0.7231 0.6549 -0.2194
vn 0.0000 -0.5872 0.8094
s off
f 7/1/1 5/2/1 4/3/1
f 7/1/2 6/4/2 5/2/2
f 7/1/3 4/3/3 6/4/3
f 6/4/4 8/5/4 3/6/4
f 4/7/5 10/8/5 11/9/5
f 4/3/6 9/10/6 6/4/6
f 1/11/7 8/5/7 10/12/7
f 6/4/8 12/13/8 13/14/8
f 2/15/9 15/16/9 14/17/9
f 6/4/10 15/18/10 5/2/10
f 2/19/11 12/13/11 3/6/11
f 4/20/12 16/21/12 1/22/12
f 2/15/13 19/23/13 5/24/13
f 5/2/14 17/25/14 4/3/14
f 2/19/15 16/26/15 18/27/15
f 16/26/16 21/28/16 18/27/16
f 17/25/17 23/29/17 22/30/17
f 18/31/18 23/32/18 19/23/18
f 16/21/19 22/33/19 20/34/19
f 8/5/16 24/35/16 10/12/16
f 11/36/17 27/37/17 9/10/17
f 11/9/20 24/38/20 26/39/20
f 9/40/21 25/41/21 8/42/21
f 14/43/16 29/44/16 12/45/16
f 15/46/17 30/47/17 31/48/17
f 15/49/22 28/50/22 14/51/22
f 12/52/23 30/53/23 13/54/23
f 20/34/19 33/55/19 32/56/19
f 21/57/24 35/58/24 23/32/24
f 22/30/17 35/59/17 33/60/17
f 20/61/16 34/62/16 21/28/16
f 33/63/25 34/64/25 32/65/25
f 29/66/26 37/67/26 30/53/26
f 31/68/22 38/69/22 28/50/22
f 31/48/17 37/70/17 39/71/17
f 28/72/16 36/73/16 29/44/16
f 39/74/27 36/75/27 38/76/27
f 27/77/21 40/78/21 25/41/21
f 24/79/28 43/80/28 26/81/28
f 27/37/17 43/82/17 41/83/17
f 25/84/16 42/85/16 24/35/16
f 42/86/29 41/87/29 43/80/29
f 3/88/30 44/89/30 45/90/30
f 3/91/31 46/92/31 2/93/31
f 2/93/32 44/94/32 1/95/32
f 50/96/16 47/97/16 48/98/16
f 50/96/16 48/98/16 49/99/16
f 49/99/16 47/97/16 50/96/16
f 44/100/33 51/101/33 47/97/33
f 48/98/34 51/101/34 53/102/34
f 46/103/35 53/104/35 54/105/35
f 46/106/36 52/107/36 44/100/36
f 54/108/25 51/109/25 52/110/25
f 47/97/37 56/111/37 55/112/37
f 45/113/38 56/114/38 49/115/38
f 44/100/39 55/112/39 58/116/39
f 44/100/40 57/117/40 45/118/40
f 58/119/29 56/120/29 57/121/29
f 49/99/41 60/122/41 59/123/41
f 45/113/42 59/124/42 61/125/42
f 46/103/43 60/126/43 48/127/43
f 46/106/44 61/128/44 62/129/44
f 61/125/27 60/130/27 62/131/27
f 6/4/45 9/10/45 8/5/45
f 4/7/5 1/95/5 10/8/5
f 4/3/46 11/36/46 9/10/46
f 1/11/47 3/6/47 8/5/47
f 6/4/48 3/6/48 12/13/48
f 2/15/9 5/24/9 15/16/9
f 6/4/49 13/14/49 15/18/49
f 2/19/50 14/132/50 12/13/50
f 4/20/12 17/133/12 16/21/12
f 2/15/13 18/31/13 19/23/13
f 5/2/51 19/134/51 17/25/51
f 2/19/52 1/11/52 16/26/52
f 16/26/16 20/61/16 21/28/16
f 17/25/17 19/134/17 23/29/17
f 18/31/18 21/57/18 23/32/18
f 16/21/19 17/133/19 22/33/19
f 8/5/16 25/84/16 24/35/16
f 11/36/17 26/135/17 27/37/17
f 11/9/20 10/8/20 24/38/20
f 9/40/21 27/77/21 25/41/21
f 14/43/16 28/72/16 29/44/16
f 15/46/17 13/136/17 30/47/17
f 15/49/22 31/68/22 28/50/22
f 12/52/23 29/66/23 30/53/23
f 20/34/19 22/33/19 33/55/19
f 21/57/24 34/137/24 35/58/24
f 22/30/17 23/29/17 35/59/17
f 20/61/16 32/138/16 34/62/16
f 33/63/25 35/139/25 34/64/25
f 29/66/26 36/140/26 37/67/26
f 31/68/22 39/141/22 38/69/22
f 31/48/17 30/47/17 37/70/17
f 28/72/16 38/142/16 36/73/16
f 39/74/27 37/143/27 36/75/27
f 27/77/21 41/144/21 40/78/21
f 24/79/28 42/86/28 43/80/28
f 27/37/17 26/135/17 43/82/17
f 25/84/16 40/145/16 42/85/16
f 42/86/29 40/146/29 41/87/29
f 3/88/53 1/22/53 44/89/53
f 3/91/54 45/113/54 46/92/54
f 2/93/55 46/92/55 44/94/55
f 44/100/56 52/107/56 51/101/56
f 48/98/57 47/97/57 51/101/57
f 46/103/58 48/127/58 53/104/58
f 46/106/59 54/147/59 52/107/59
f 54/108/25 53/148/25 51/109/25
f 47/97/37 49/99/37 56/111/37
f 45/113/60 57/149/60 56/114/60
f 44/100/61 47/97/61 55/112/61
f 44/100/40 58/116/40 57/117/40
f 58/119/29 55/150/29 56/120/29
f 49/99/41 48/98/41 60/122/41
f 45/113/62 49/115/62 59/124/62
f 46/103/63 62/151/63 60/126/63
f 46/106/44 45/118/44 61/128/44
f 61/125/27 59/124/27 60/130/27
