# Blender v2.81 (sub 16) OBJ File: 'Helicopter_centered.blend'
# www.blender.org
o GeamDrept_Elicopter_Complet.000
v 0.096320 3.234509 3.302497
v 0.096320 2.304717 3.096020
v 0.096320 2.253413 3.293587
v 0.888080 2.253413 3.293587
v 1.127268 3.234509 3.302497
v 1.038691 2.077708 3.291991
v 1.127268 1.986472 3.291162
v 1.127268 3.246819 3.266651
v 0.096320 3.246819 3.266651
v 1.127268 3.420104 2.762121
v 1.189303 3.356380 2.947655
v 1.189303 3.246819 3.266651
v 1.127268 1.997262 2.103057
v 1.127268 3.425972 2.116032
vt 0.614168 1.000000
vt 0.526430 0.582084
vt 0.614168 0.559876
vt 0.526430 0.559876
vt 0.877231 0.119752
vt 0.983207 0.559876
vt 0.943962 0.040929
vt 0.983207 0.000000
vt 0.526430 0.119752
vt 1.000000 0.462469
vt 0.983207 0.462469
vt 1.000000 0.000000
vt 0.983207 0.000000
vt 0.641654 0.799178
vt 0.614168 0.711178
vt 0.641654 0.559876
vt 0.614168 0.559876
vt 0.526430 0.000000
vt 0.240159 0.640926
vt 0.000001 0.000000
vt 0.015931 0.565252
vt 0.000000 0.559876
vt 0.526430 0.640927
vn -1.0000 0.0000 0.0000
vn 0.0000 -0.0091 1.0000
vn 0.0000 0.9458 0.3248
vn -0.0000 -0.9458 -0.3248
vn 1.0000 -0.0000 0.0000
s off
f 1/1/1 2/2/1 3/3/1
f 1/4/2 4/5/2 5/6/2
f 5/6/2 4/5/2 6/7/2
f 5/6/2 6/7/2 7/8/2
f 1/4/2 3/9/2 4/5/2
f 5/10/3 8/11/3 1/12/3
f 1/12/3 8/11/3 9/13/3
f 10/14/4 11/15/4 8/16/4
f 8/16/4 11/15/4 12/17/4
f 13/18/5 10/19/5 7/20/5
f 7/20/5 10/19/5 8/21/5
f 7/20/5 8/21/5 5/22/5
f 13/18/5 14/23/5 10/19/5
