# Blender v2.81 (sub 16) OBJ File: 'DoubleTurretTank_centered.blend'
# www.blender.org
o Tank2.001
v -17.367569 1.156396 7.071540
v -15.956762 0.778371 7.071540
v -17.367569 1.156396 5.932313
v -15.956762 0.778371 5.932313
v -18.425674 1.836477 7.071540
v -18.425674 1.836477 5.932313
v -18.778378 3.458225 7.071541
v -18.778378 3.458226 5.932313
v -18.721159 4.658091 7.071541
v -18.721159 4.658091 5.932314
v 6.968854 4.658091 7.071541
v 6.968854 4.658091 5.932314
v 3.794538 0.778371 7.071540
v 3.794538 0.778371 5.932313
v 6.154324 1.836477 7.071540
v 6.154324 1.836477 5.932313
v 6.968854 3.247283 7.071541
v 6.968854 3.247284 5.932313
v -17.720272 0.697506 4.017143
v -17.721699 2.113736 4.017143
v -15.956762 0.032045 4.017143
v 5.340425 2.113736 4.017143
v 3.794538 0.032045 4.017143
v 5.558046 0.697506 4.017143
v -19.011250 1.442853 4.017143
v -18.552662 2.806207 4.017143
v -19.483780 3.206361 4.017143
v 6.390437 2.719961 4.017143
v 7.321555 3.206361 4.017143
v 6.849025 1.442853 4.017143
v -19.011250 1.442853 7.071540
v -19.483780 3.206361 7.071541
v 6.849025 1.442853 7.071540
v 7.321555 3.206361 7.071541
v 7.321555 3.206361 7.727566
v 8.026958 3.206361 7.727566
v 8.026958 3.206361 4.017143
v -17.720272 0.697506 7.071540
v -15.956762 0.032045 7.071540
v 3.794538 0.032045 7.071540
v 5.558046 0.697506 7.071540
v 7.321555 5.051714 7.071541
v -19.483780 5.051714 7.071541
v 3.240932 0.901593 3.317311
v 0.309858 1.835292 3.856382
v -13.578156 1.835292 3.856382
v -16.267124 0.901593 3.317311
v -14.356239 0.901593 3.317311
v 1.139915 0.901593 3.317311
v -18.721159 4.658093 -7.375124
v 6.968854 4.658093 -7.375124
v -18.721159 4.658093 -6.313492
v 6.968854 4.658093 -6.313492
v -18.778378 3.458228 -7.375124
v -18.778378 3.458228 -6.313493
v -18.425674 1.836479 -7.375124
v -18.425674 1.836479 -6.313493
v -17.367569 1.156398 -7.375125
v -17.367569 1.156398 -6.313493
v -15.956762 0.778373 -7.375125
v -15.956762 0.778373 -6.313493
v 3.794538 0.778373 -7.375125
v 3.794538 0.778373 -6.313493
v 6.154324 1.836479 -7.375124
v 6.154324 1.836479 -6.313493
v 6.968854 3.247286 -7.375124
v 6.968854 3.247286 -6.313493
v 3.794538 0.032047 -4.320727
v 5.558046 0.697508 -4.320727
v 5.329844 2.107629 -4.320727
v 6.849025 1.442855 -4.320727
v 6.390437 2.719962 -4.320726
v 7.321555 3.206362 -4.320726
v -18.552662 2.806208 -4.320726
v -19.483780 3.206362 -4.320726
v -19.011250 1.442855 -4.320727
v -17.714367 2.107629 -4.320727
v -17.720272 0.697508 -4.320727
v -15.956762 0.032047 -4.320727
v 3.794538 0.032047 -7.375125
v 5.558046 0.697508 -7.375125
v -15.956762 0.032047 -7.375125
v -17.720272 0.697508 -7.375125
v -19.011250 1.442855 -7.375125
v 6.849025 1.442855 -7.375125
v -19.483780 3.206363 -7.375124
v -19.483780 5.051717 -7.375124
v 7.321555 5.051717 -7.375124
v 7.321555 3.206363 -7.375124
v -19.483780 3.206363 -8.031150
v -20.189184 3.206363 -8.031150
v -20.189184 3.206362 -4.320726
vt 0.857133 0.836997
vt 0.857133 0.782515
vt 0.912931 0.836997
vt 0.912931 0.782515
vt 0.857133 0.881910
vt 0.912931 0.881910
vt 0.912931 0.395407
vt 0.912931 0.335357
vt 0.968729 0.395407
vt 0.968729 0.335357
vt 0.912931 0.440214
vt 0.968729 0.440214
vt 0.857132 0.000000
vt 0.857133 0.958392
vt 0.801334 0.000000
vt 0.801335 0.958392
vt 0.857133 0.073855
vt 0.912931 0.073855
vt 0.857133 0.000000
vt 0.912931 0.000000
vt 0.912931 0.335357
vt 0.912931 0.280336
vt 0.968729 0.335357
vt 0.968729 0.280336
vt 0.912931 0.227895
vt 0.968729 0.227895
vt 0.382294 0.013158
vt 0.415450 0.052632
vt 0.303227 0.000000
vt 0.433881 0.105263
vt 0.244729 0.002135
vt 0.433881 0.842105
vt 0.244729 0.960526
vt 0.382294 0.930139
vt 0.313511 0.960526
vt 0.466474 0.065789
vt 0.535840 0.065736
vt 0.433881 0.131579
vt 0.535840 0.926092
vt 0.433881 0.868421
vt 0.466474 0.934211
vt 0.502980 0.017628
vt 0.569756 0.034736
vt 0.589355 0.000000
vt 0.565532 0.965264
vt 0.589355 1.000000
vt 0.502980 0.982372
vt 0.997030 0.227895
vt 0.912931 0.227895
vt 0.997030 0.113947
vt 0.912931 0.113947
vt 1.000000 0.113947
vt 0.912931 0.113947
vt 1.000000 0.000000
vt 0.912931 0.000000
vt 0.912931 0.578636
vt 0.912931 0.554162
vt 0.947481 0.578636
vt 0.947481 0.440215
vt 0.912931 0.440215
vt 0.089968 0.000000
vt 0.175946 0.017628
vt 0.156756 0.039474
vt 0.212285 0.065789
vt 0.189912 0.078947
vt 0.244729 0.131579
vt 0.208342 0.131579
vt 0.244729 0.868421
vt 0.208343 0.868421
vt 0.212285 0.934210
vt 0.156756 0.956455
vt 0.175946 0.982372
vt 0.087973 0.986842
vt 0.089968 1.000000
vt 0.019191 0.986842
vt 0.000000 1.000000
vt 0.019191 0.028450
vt 0.000000 0.000000
vt 0.077689 0.026316
vt 0.738956 0.916582
vt 0.738956 0.964743
vt 0.589355 0.916582
vt 0.589355 0.964743
vt 0.738956 0.000000
vt 0.738956 0.048161
vt 0.589355 0.000000
vt 0.589355 0.048161
vt 0.738956 0.113951
vt 0.589355 0.113951
vt 0.738956 0.850793
vt 0.589355 0.850793
vt 0.801334 0.782032
vt 0.738956 0.860356
vt 0.753285 0.672685
vt 0.738956 0.000000
vt 0.753285 0.154579
vt 0.801334 0.054264
vt 0.801334 0.125552
vt 0.801334 0.703651
vt 0.850790 0.000000
vt 0.850790 0.958392
vt 0.795000 0.000000
vt 0.795000 0.958392
vt 0.906580 0.380164
vt 0.906580 0.335357
vt 0.962370 0.380164
vt 0.962370 0.335357
vt 0.906580 0.440215
vt 0.962370 0.440215
vt 0.850790 0.044913
vt 0.850790 0.000000
vt 0.906580 0.044913
vt 0.906580 0.000000
vt 0.850790 0.099395
vt 0.906580 0.099395
vt 0.850790 0.808056
vt 0.906580 0.808055
vt 0.850790 0.881910
vt 0.906580 0.881910
vt 0.962370 0.280336
vt 0.962370 0.335357
vt 0.906580 0.280336
vt 0.906580 0.335357
vt 0.962370 0.227895
vt 0.906580 0.227895
vt 0.467673 0.131579
vt 0.502644 0.065789
vt 0.576748 0.074303
vt 0.541813 0.017628
vt 0.608926 0.034736
vt 0.634487 0.000000
vt 0.613459 0.965264
vt 0.634487 1.000000
vt 0.541813 0.982372
vt 0.576748 0.933990
vt 0.502644 0.934211
vt 0.467673 0.868421
vt 0.634487 0.113951
vt 0.634487 0.048161
vt 0.794999 0.113951
vt 0.794999 0.048161
vt 0.634488 0.850793
vt 0.795000 0.850793
vt 0.634488 0.916582
vt 0.795000 0.916582
vt 0.634488 0.964743
vt 0.795000 0.964743
vt 0.634487 0.000000
vt 0.794999 0.000000
vt 0.166814 0.000000
vt 0.263790 0.000000
vt 0.243104 0.028450
vt 0.263790 1.000000
vt 0.243104 0.986842
vt 0.166814 1.000000
vt 0.168965 0.986842
vt 0.074140 0.982372
vt 0.094825 0.956455
vt 0.034971 0.934211
vt 0.039220 0.868421
vt 0.000000 0.868421
vt 0.000000 0.131579
vt 0.180050 0.026316
vt 0.094825 0.039474
vt 0.074140 0.017628
vt 0.034971 0.065789
vt 0.059086 0.078947
vt 0.039220 0.131579
vt 0.943650 0.440215
vt 0.943650 0.464688
vt 0.906580 0.440215
vt 0.906580 0.578636
vt 0.943650 0.578636
vt 0.996813 0.227895
vt 0.906580 0.227895
vt 0.996813 0.113947
vt 0.906580 0.113947
vt 1.000000 0.113947
vt 0.906580 0.113947
vt 1.000000 0.000000
vt 0.906580 0.000000
vt 0.393534 0.960526
vt 0.319394 0.930140
vt 0.467673 0.960526
vt 0.263790 0.842105
vt 0.467673 0.002135
vt 0.263790 0.105263
vt 0.404619 0.000000
vt 0.283655 0.052632
vt 0.319394 0.013158
vn 0.2588 0.9659 0.0000
vn 0.5407 0.8412 0.0000
vn 0.9772 0.2125 0.0000
vn 0.9989 -0.0476 -0.0000
vn 0.0000 -1.0000 0.0000
vn 0.0000 1.0000 0.0000
vn -0.4091 0.9125 0.0000
vn -0.8660 0.5000 0.0000
vn -1.0000 0.0000 0.0000
vn 0.0000 0.0000 1.0000
vn 0.0000 0.0000 -1.0000
vn -0.9659 -0.2588 -0.0000
vn 0.9659 -0.2588 -0.0000
vn -0.5000 -0.8660 -0.0000
vn 0.5000 -0.8660 -0.0000
vn 0.3531 -0.9356 -0.0000
vn -0.3531 -0.9356 -0.0000
vn -0.0000 -0.5000 0.8660
s off
f 1/1/1 2/2/1 3/3/1
f 3/3/1 2/2/1 4/4/1
f 5/5/2 1/1/2 6/6/2
f 6/6/2 1/1/2 3/3/2
f 7/7/3 5/8/3 8/9/3
f 8/9/3 5/8/3 6/10/3
f 9/11/4 7/7/4 10/12/4
f 10/12/4 7/7/4 8/9/4
f 11/13/5 9/14/5 12/15/5
f 12/15/5 9/14/5 10/16/5
f 2/2/6 13/17/6 4/4/6
f 4/4/6 13/17/6 14/18/6
f 13/17/7 15/19/7 14/18/7
f 14/18/7 15/19/7 16/20/7
f 15/21/8 17/22/8 16/23/8
f 16/23/8 17/22/8 18/24/8
f 17/22/9 11/25/9 18/24/9
f 18/24/9 11/25/9 12/26/9
f 6/27/10 3/28/10 8/29/10
f 8/29/10 3/28/10 4/30/10
f 8/29/10 4/30/10 10/31/10
f 10/31/10 4/30/10 14/32/10
f 10/31/10 14/32/10 12/33/10
f 12/33/10 14/32/10 16/34/10
f 12/33/10 16/34/10 18/35/10
f 19/36/11 20/37/11 21/38/11
f 21/38/11 20/37/11 22/39/11
f 21/38/11 22/39/11 23/40/11
f 23/40/11 22/39/11 24/41/11
f 19/36/11 25/42/11 20/37/11
f 20/37/11 25/42/11 26/43/11
f 25/42/11 27/44/11 26/43/11
f 28/45/11 29/46/11 30/47/11
f 28/45/11 30/47/11 22/39/11
f 22/39/11 30/47/11 24/41/11
f 31/48/12 32/49/12 25/50/12
f 25/50/12 32/49/12 27/51/12
f 30/52/13 29/53/13 33/54/13
f 33/54/13 29/53/13 34/55/13
f 35/56/5 34/57/5 36/58/5
f 36/58/5 34/57/5 37/59/5
f 34/57/5 29/60/5 37/59/5
f 32/61/10 31/62/10 5/63/10
f 5/63/10 31/62/10 38/64/10
f 5/63/10 38/64/10 1/65/10
f 1/65/10 38/64/10 39/66/10
f 1/65/10 39/66/10 2/67/10
f 2/67/10 39/66/10 40/68/10
f 2/67/10 40/68/10 13/69/10
f 13/69/10 40/68/10 41/70/10
f 13/69/10 41/70/10 15/71/10
f 15/71/10 41/70/10 33/72/10
f 15/71/10 33/72/10 17/73/10
f 17/73/10 33/72/10 34/74/10
f 17/73/10 34/74/10 11/75/10
f 11/75/10 34/74/10 42/76/10
f 11/75/10 42/76/10 9/77/10
f 9/77/10 42/76/10 43/78/10
f 9/77/10 43/78/10 32/61/10
f 5/63/10 7/79/10 32/61/10
f 32/61/10 7/79/10 9/77/10
f 38/80/14 31/81/14 19/82/14
f 19/82/14 31/81/14 25/83/14
f 33/84/15 41/85/15 30/86/15
f 30/86/15 41/85/15 24/87/15
f 41/85/16 40/88/16 24/87/16
f 24/87/16 40/88/16 23/89/16
f 40/88/5 39/90/5 23/89/5
f 23/89/5 39/90/5 21/91/5
f 39/90/17 38/80/17 21/91/17
f 21/91/17 38/80/17 19/82/17
f 44/92/18 22/93/18 45/94/18
f 45/94/18 22/93/18 20/95/18
f 45/94/18 20/95/18 46/96/18
f 46/96/18 20/95/18 47/97/18
f 46/96/18 47/97/18 48/98/18
f 45/94/18 49/99/18 44/92/18
f 50/100/5 51/101/5 52/102/5
f 52/102/5 51/101/5 53/103/5
f 54/104/4 50/105/4 55/106/4
f 55/106/4 50/105/4 52/107/4
f 56/108/3 54/104/3 57/109/3
f 57/109/3 54/104/3 55/106/3
f 58/110/2 56/111/2 59/112/2
f 59/112/2 56/111/2 57/113/2
f 60/114/1 58/110/1 61/115/1
f 61/115/1 58/110/1 59/112/1
f 62/116/6 60/114/6 63/117/6
f 63/117/6 60/114/6 61/115/6
f 64/118/7 62/116/7 65/119/7
f 65/119/7 62/116/7 63/117/7
f 66/120/8 64/121/8 67/122/8
f 67/122/8 64/121/8 65/123/8
f 51/124/9 66/120/9 53/125/9
f 53/125/9 66/120/9 67/122/9
f 68/126/10 69/127/10 70/128/10
f 70/128/10 69/127/10 71/129/10
f 70/128/10 71/129/10 72/130/10
f 72/130/10 71/129/10 73/131/10
f 74/132/10 75/133/10 76/134/10
f 74/132/10 76/134/10 77/135/10
f 77/135/10 76/134/10 78/136/10
f 77/135/10 78/136/10 79/137/10
f 68/126/10 70/128/10 79/137/10
f 79/137/10 70/128/10 77/135/10
f 80/138/16 81/139/16 68/140/16
f 68/140/16 81/139/16 69/141/16
f 82/142/5 80/138/5 79/143/5
f 79/143/5 80/138/5 68/140/5
f 83/144/17 82/142/17 78/145/17
f 78/145/17 82/142/17 79/143/17
f 84/146/14 83/144/14 76/147/14
f 76/147/14 83/144/14 78/145/14
f 81/139/15 85/148/15 69/141/15
f 69/141/15 85/148/15 71/149/15
f 86/150/11 87/151/11 50/152/11
f 50/152/11 87/151/11 88/153/11
f 50/152/11 88/153/11 51/154/11
f 51/154/11 88/153/11 89/155/11
f 51/154/11 89/155/11 66/156/11
f 66/156/11 89/155/11 85/157/11
f 66/156/11 85/157/11 64/158/11
f 64/158/11 85/157/11 81/159/11
f 64/158/11 81/159/11 62/160/11
f 62/160/11 81/159/11 80/161/11
f 62/160/11 80/161/11 82/162/11
f 50/152/11 54/163/11 86/150/11
f 86/150/11 54/163/11 56/164/11
f 86/150/11 56/164/11 84/165/11
f 84/165/11 56/164/11 83/166/11
f 56/164/11 58/167/11 83/166/11
f 83/166/11 58/167/11 82/162/11
f 58/167/11 60/168/11 82/162/11
f 82/162/11 60/168/11 62/160/11
f 90/169/5 86/170/5 91/171/5
f 91/171/5 86/170/5 92/172/5
f 86/170/5 75/173/5 92/172/5
f 76/174/12 75/175/12 84/176/12
f 84/176/12 75/175/12 86/177/12
f 85/178/13 89/179/13 71/180/13
f 71/180/13 89/179/13 73/181/13
f 67/182/11 65/183/11 53/184/11
f 53/184/11 65/183/11 63/185/11
f 53/184/11 63/185/11 52/186/11
f 52/186/11 63/185/11 61/187/11
f 52/186/11 61/187/11 55/188/11
f 55/188/11 61/187/11 59/189/11
f 55/188/11 59/189/11 57/190/11
