# Blender v2.81 (sub 16) OBJ File: 'hangar.blend'
# www.blender.org
mtllib windows.mtl
o windows_Cube.003
v -58.689384 15.401341 -59.406319
v -58.689384 15.401341 -84.139763
v -58.689384 15.401342 77.580864
v -58.689384 15.401342 52.847412
v -58.689384 15.401342 10.041731
v -58.689384 15.401341 -14.691713
v -58.689384 30.347343 -59.406319
v -58.689384 30.347343 -84.139763
v -58.689384 30.347343 77.580864
v -58.689384 30.347343 52.847412
v -58.689384 30.347343 10.041731
v -58.689384 30.347343 -14.691713
v 59.619247 30.347343 -84.060287
v 59.619247 15.401341 -84.060287
v 59.619247 30.347343 -59.302017
v 59.619247 15.401341 -59.302017
v 59.619247 30.347343 -14.742517
v 59.619247 15.401341 -14.742517
v 59.619247 30.347343 10.145852
v 59.619247 30.347343 52.759666
v 59.619247 15.401341 52.759666
v 59.619247 30.347343 77.721024
v 59.619247 15.346100 10.145850
v 59.619247 15.437263 77.721024
vt -0.009788 0.996317
vt -1.018534 0.000000
vt -0.009806 0.000000
vt -0.009788 0.000000
vt 0.998948 0.996318
vt -0.009781 0.996318
vt -1.018552 0.000000
vt -2.027263 0.996318
vt -2.027281 0.000000
vt -3.037023 0.996318
vt -2.027281 0.000000
vt -2.027282 0.996318
vt -5.070096 1.000000
vt -4.055048 0.003683
vt -4.055049 1.000000
vt -3.037025 0.996318
vt -4.055047 0.002394
vt -3.037023 0.000000
vt -1.018516 0.996317
vt 0.998940 0.000000
vt -1.018534 0.996318
vt -3.037022 0.000000
vt -5.070094 0.000000
vt -4.055048 0.996318
vn -1.0000 0.0000 0.0000
vn 1.0000 0.0000 0.0000
usemtl Material.003
s off
f 4/1/1 9/2/1 10/3/1
f 6/4/1 11/5/1 12/6/1
f 8/7/1 1/8/1 7/9/1
f 15/10/2 14/11/2 13/12/2
f 19/13/2 18/14/2 17/15/2
f 20/16/2 24/17/2 21/18/2
f 4/1/1 3/19/1 9/2/1
f 6/4/1 5/20/1 11/5/1
f 8/7/1 2/21/1 1/8/1
f 15/10/2 16/22/2 14/11/2
f 19/13/2 23/23/2 18/14/2
f 20/16/2 22/24/2 24/17/2
